<svg id="svg" version="1.1" xmlns="http://www.w3.org/2000/svg" xmlns:xlink="http://www.w3.org/1999/xlink" width="400" height="84.90718321226797" viewBox="0, 0, 400,84.90718321226797"><g id="svgg"><path id="path0" d="M380.051 4.958 C 381.041 4.987,382.616 4.987,383.551 4.958 C 384.485 4.928,383.675 4.904,381.750 4.904 C 379.825 4.904,379.060 4.928,380.051 4.958 M335.375 5.948 C 335.535 5.990,335.798 5.990,335.958 5.948 C 336.119 5.906,335.987 5.872,335.667 5.872 C 335.346 5.872,335.215 5.906,335.375 5.948 M327.875 6.282 C 328.035 6.323,328.298 6.323,328.458 6.282 C 328.619 6.240,328.487 6.205,328.167 6.205 C 327.846 6.205,327.715 6.240,327.875 6.282 M306.127 7.451 C 306.334 7.491,306.634 7.490,306.794 7.448 C 306.953 7.406,306.783 7.374,306.417 7.375 C 306.050 7.377,305.920 7.411,306.127 7.451 M303.460 7.618 C 303.668 7.658,303.968 7.656,304.127 7.615 C 304.286 7.573,304.117 7.540,303.750 7.542 C 303.383 7.544,303.253 7.578,303.460 7.618 M300.794 7.785 C 301.001 7.824,301.301 7.823,301.460 7.781 C 301.620 7.739,301.450 7.707,301.083 7.709 C 300.717 7.711,300.586 7.745,300.794 7.785 M297.960 7.951 C 298.168 7.991,298.468 7.990,298.627 7.948 C 298.786 7.906,298.617 7.874,298.250 7.875 C 297.883 7.877,297.753 7.911,297.960 7.951 M295.292 8.118 C 295.498 8.157,295.835 8.157,296.042 8.118 C 296.248 8.078,296.079 8.045,295.667 8.045 C 295.254 8.045,295.085 8.078,295.292 8.118 M292.960 8.285 C 293.168 8.324,293.468 8.323,293.627 8.281 C 293.786 8.239,293.617 8.207,293.250 8.209 C 292.883 8.211,292.753 8.245,292.960 8.285 M290.460 8.451 C 290.668 8.491,290.968 8.490,291.127 8.448 C 291.286 8.406,291.117 8.374,290.750 8.375 C 290.383 8.377,290.253 8.411,290.460 8.451 M288.042 8.615 C 288.202 8.657,288.465 8.657,288.625 8.615 C 288.785 8.573,288.654 8.539,288.333 8.539 C 288.012 8.539,287.881 8.573,288.042 8.615 M285.542 8.782 C 285.702 8.823,285.965 8.823,286.125 8.782 C 286.285 8.740,286.154 8.705,285.833 8.705 C 285.512 8.705,285.381 8.740,285.542 8.782 M241.708 12.448 C 241.869 12.490,242.131 12.490,242.292 12.448 C 242.452 12.406,242.321 12.372,242.000 12.372 C 241.679 12.372,241.548 12.406,241.708 12.448 M239.875 12.615 C 240.035 12.657,240.298 12.657,240.458 12.615 C 240.619 12.573,240.487 12.539,240.167 12.539 C 239.846 12.539,239.715 12.573,239.875 12.615 M236.294 12.951 C 236.501 12.991,236.801 12.990,236.960 12.948 C 237.120 12.906,236.950 12.874,236.583 12.875 C 236.217 12.877,236.086 12.911,236.294 12.951 M234.542 13.115 C 234.702 13.157,234.965 13.157,235.125 13.115 C 235.285 13.073,235.154 13.039,234.833 13.039 C 234.512 13.039,234.381 13.073,234.542 13.115 M232.794 13.285 C 233.001 13.324,233.301 13.323,233.460 13.281 C 233.620 13.239,233.450 13.207,233.083 13.209 C 232.717 13.211,232.586 13.245,232.794 13.285 M231.127 13.451 C 231.334 13.491,231.634 13.490,231.794 13.448 C 231.953 13.406,231.783 13.374,231.417 13.375 C 231.050 13.377,230.920 13.411,231.127 13.451 M229.460 13.618 C 229.668 13.658,229.968 13.656,230.127 13.615 C 230.286 13.573,230.117 13.540,229.750 13.542 C 229.383 13.544,229.253 13.578,229.460 13.618 M227.625 13.784 C 227.831 13.824,228.169 13.824,228.375 13.784 C 228.581 13.745,228.412 13.712,228.000 13.712 C 227.588 13.712,227.419 13.745,227.625 13.784 M225.960 13.951 C 226.168 13.991,226.468 13.990,226.627 13.948 C 226.786 13.906,226.617 13.874,226.250 13.875 C 225.883 13.877,225.753 13.911,225.960 13.951 M224.294 14.118 C 224.501 14.158,224.801 14.156,224.960 14.115 C 225.120 14.073,224.950 14.040,224.583 14.042 C 224.217 14.044,224.086 14.078,224.294 14.118 M191.708 17.615 C 191.869 17.657,192.131 17.657,192.292 17.615 C 192.452 17.573,192.321 17.539,192.000 17.539 C 191.679 17.539,191.548 17.573,191.708 17.615 M190.208 17.782 C 190.369 17.823,190.631 17.823,190.792 17.782 C 190.952 17.740,190.821 17.705,190.500 17.705 C 190.179 17.705,190.048 17.740,190.208 17.782 M188.794 17.951 C 189.001 17.991,189.301 17.990,189.460 17.948 C 189.620 17.906,189.450 17.874,189.083 17.875 C 188.717 17.877,188.586 17.911,188.794 17.951 M187.294 18.118 C 187.501 18.158,187.801 18.156,187.960 18.115 C 188.120 18.073,187.950 18.040,187.583 18.042 C 187.217 18.044,187.086 18.078,187.294 18.118 M185.794 18.285 C 186.001 18.324,186.301 18.323,186.460 18.281 C 186.620 18.239,186.450 18.207,186.083 18.209 C 185.717 18.211,185.586 18.245,185.794 18.285 M183.333 18.500 C 182.656 18.605,182.640 18.618,183.167 18.627 C 183.487 18.633,184.125 18.579,184.583 18.508 C 185.372 18.385,185.381 18.378,184.750 18.381 C 184.383 18.382,183.746 18.436,183.333 18.500 M181.458 18.784 C 181.665 18.824,182.002 18.824,182.208 18.784 C 182.415 18.745,182.246 18.712,181.833 18.712 C 181.421 18.712,181.252 18.745,181.458 18.784 M180.127 18.951 C 180.334 18.991,180.634 18.990,180.794 18.948 C 180.953 18.906,180.783 18.874,180.417 18.875 C 180.050 18.877,179.920 18.911,180.127 18.951 M178.625 19.118 C 178.831 19.157,179.169 19.157,179.375 19.118 C 179.581 19.078,179.412 19.045,179.000 19.045 C 178.588 19.045,178.419 19.078,178.625 19.118 M177.294 19.285 C 177.501 19.324,177.801 19.323,177.960 19.281 C 178.120 19.239,177.950 19.207,177.583 19.209 C 177.217 19.211,177.086 19.245,177.294 19.285 M175.792 19.451 C 175.998 19.491,176.335 19.491,176.542 19.451 C 176.748 19.411,176.579 19.379,176.167 19.379 C 175.754 19.379,175.585 19.411,175.792 19.451 M174.375 19.615 C 174.535 19.657,174.798 19.657,174.958 19.615 C 175.119 19.573,174.987 19.539,174.667 19.539 C 174.346 19.539,174.215 19.573,174.375 19.615 M160.583 21.271 C 159.758 21.401,158.933 21.515,158.750 21.525 C 157.779 21.576,136.161 24.327,128.250 25.405 C 109.686 27.937,107.845 28.188,104.250 28.683 C 101.095 29.118,92.365 30.391,76.250 32.768 C 66.068 34.269,63.765 34.620,53.917 36.170 C 48.142 37.079,41.692 38.085,39.583 38.405 C 37.475 38.725,27.706 40.321,17.875 41.952 L 0.001 44.917 0.000 64.542 C 0.000 75.335,0.056 84.165,0.125 84.164 C 0.194 84.162,0.925 83.775,1.750 83.303 C 2.575 82.832,4.300 81.872,5.583 81.171 C 6.867 80.470,8.817 79.403,9.917 78.801 C 11.017 78.198,12.592 77.371,13.417 76.962 C 14.242 76.554,16.186 75.574,17.738 74.785 C 19.289 73.996,20.620 73.388,20.696 73.435 C 20.772 73.481,20.833 73.455,20.833 73.376 C 20.833 73.298,21.902 72.721,23.208 72.095 C 24.515 71.470,26.578 70.480,27.794 69.895 C 29.011 69.311,30.037 68.833,30.076 68.833 C 30.115 68.833,30.793 68.533,31.583 68.167 C 32.373 67.800,33.074 67.500,33.139 67.500 C 33.205 67.500,33.688 67.277,34.213 67.005 C 34.737 66.733,35.167 66.554,35.167 66.608 C 35.167 66.661,35.335 66.598,35.542 66.467 C 35.974 66.193,40.626 64.202,41.000 64.131 C 41.137 64.105,41.287 64.042,41.333 63.991 C 41.547 63.756,44.943 62.323,45.375 62.287 C 45.535 62.273,45.667 62.219,45.667 62.167 C 45.667 62.114,45.834 62.058,46.039 62.043 C 46.244 62.027,46.438 61.936,46.470 61.841 C 46.502 61.745,46.597 61.667,46.682 61.667 C 46.767 61.667,47.192 61.509,47.627 61.317 C 49.281 60.584,51.926 59.611,52.265 59.611 C 52.394 59.611,52.500 59.541,52.500 59.454 C 52.500 59.368,52.613 59.341,52.750 59.394 C 52.888 59.446,53.000 59.430,53.000 59.356 C 53.000 59.199,56.155 57.906,56.458 57.940 C 56.573 57.953,56.667 57.906,56.667 57.837 C 56.667 57.768,57.023 57.583,57.458 57.426 C 57.894 57.269,58.419 57.072,58.625 56.987 C 58.831 56.903,59.169 56.764,59.375 56.680 C 59.581 56.596,60.000 56.484,60.305 56.432 C 60.610 56.379,61.098 56.232,61.388 56.104 C 61.679 55.976,62.329 55.719,62.833 55.532 C 63.337 55.345,64.372 54.960,65.133 54.675 C 65.893 54.390,66.587 54.201,66.674 54.255 C 66.762 54.309,66.833 54.292,66.833 54.217 C 66.833 54.052,68.588 53.359,69.167 53.296 C 69.396 53.271,69.624 53.196,69.674 53.129 C 69.724 53.063,69.911 52.980,70.091 52.946 C 70.270 52.912,70.642 52.792,70.917 52.680 C 71.997 52.238,73.278 51.794,73.833 51.669 C 74.359 51.551,75.512 51.165,76.167 50.889 C 76.304 50.831,76.492 50.762,76.583 50.736 C 76.675 50.711,76.975 50.608,77.250 50.508 C 79.027 49.860,81.882 49.010,82.012 49.091 C 82.097 49.143,82.167 49.099,82.167 48.992 C 82.167 48.885,82.274 48.839,82.406 48.889 C 82.537 48.940,82.671 48.904,82.703 48.809 C 82.734 48.714,82.964 48.624,83.213 48.610 C 83.463 48.595,83.666 48.519,83.667 48.441 C 83.667 48.362,83.770 48.337,83.896 48.386 C 84.023 48.434,84.191 48.415,84.271 48.342 C 84.528 48.110,87.016 47.323,87.177 47.423 C 87.263 47.476,87.333 47.457,87.333 47.380 C 87.333 47.302,87.690 47.144,88.125 47.027 C 89.738 46.595,90.254 46.437,90.417 46.326 C 90.508 46.264,90.867 46.169,91.213 46.116 C 91.560 46.063,92.078 45.902,92.364 45.760 C 92.650 45.617,93.020 45.500,93.186 45.500 C 93.352 45.500,93.884 45.360,94.369 45.188 C 95.841 44.667,97.698 44.167,97.839 44.253 C 97.912 44.299,97.997 44.278,98.027 44.209 C 98.097 44.051,100.616 43.282,101.125 43.264 C 101.331 43.256,101.500 43.210,101.500 43.161 C 101.500 43.071,102.884 42.628,103.333 42.576 C 103.471 42.560,103.696 42.504,103.833 42.452 C 104.526 42.192,105.500 41.943,106.710 41.715 C 106.964 41.667,107.212 41.562,107.262 41.481 C 107.312 41.400,107.512 41.333,107.706 41.333 C 107.901 41.333,108.290 41.263,108.572 41.178 C 108.853 41.093,109.383 40.943,109.750 40.846 C 110.117 40.749,111.092 40.477,111.917 40.241 C 113.593 39.761,117.237 38.836,117.750 38.760 C 117.933 38.733,118.196 38.664,118.333 38.607 C 118.471 38.550,118.771 38.484,119.000 38.460 C 119.229 38.436,119.461 38.356,119.516 38.282 C 119.571 38.207,119.889 38.132,120.224 38.115 C 120.558 38.098,120.832 38.039,120.833 37.985 C 120.833 37.898,122.322 37.506,123.000 37.414 C 123.138 37.395,123.371 37.328,123.518 37.264 C 123.666 37.201,123.985 37.128,124.227 37.102 C 124.469 37.076,124.717 37.005,124.778 36.944 C 124.839 36.883,125.134 36.833,125.435 36.833 C 125.735 36.833,126.027 36.758,126.083 36.667 C 126.140 36.575,126.345 36.500,126.540 36.500 C 126.734 36.500,127.123 36.428,127.405 36.341 C 127.686 36.253,128.388 36.093,128.963 35.984 C 129.539 35.875,130.049 35.721,130.098 35.643 C 130.147 35.564,130.390 35.500,130.640 35.500 C 130.889 35.500,132.322 35.197,133.823 34.826 C 135.325 34.455,136.649 34.188,136.766 34.233 C 136.883 34.278,137.003 34.240,137.034 34.148 C 137.064 34.057,137.388 33.967,137.753 33.949 C 138.118 33.931,138.457 33.863,138.506 33.797 C 138.556 33.731,138.856 33.656,139.173 33.630 C 139.490 33.605,139.795 33.522,139.851 33.446 C 139.906 33.371,140.243 33.285,140.601 33.255 C 140.958 33.226,141.362 33.157,141.500 33.104 C 142.037 32.894,143.898 32.520,144.022 32.597 C 144.094 32.642,144.287 32.604,144.452 32.514 C 144.883 32.277,146.856 31.828,147.021 31.929 C 147.097 31.977,147.307 31.936,147.488 31.840 C 147.668 31.743,148.026 31.651,148.283 31.635 C 148.540 31.619,148.826 31.550,148.919 31.482 C 149.012 31.413,149.387 31.315,149.753 31.263 C 150.420 31.167,151.643 30.934,152.958 30.652 C 153.348 30.568,153.985 30.432,154.375 30.348 C 154.765 30.264,155.458 30.124,155.917 30.036 C 156.375 29.948,157.537 29.702,158.500 29.488 C 159.462 29.274,160.562 29.095,160.942 29.091 C 161.323 29.087,161.607 29.039,161.574 28.985 C 161.541 28.931,161.849 28.810,162.260 28.715 C 162.715 28.611,163.045 28.605,163.103 28.699 C 163.156 28.784,163.285 28.745,163.391 28.613 C 163.497 28.481,163.883 28.329,164.250 28.277 C 165.527 28.094,167.692 27.702,169.417 27.341 C 170.844 27.042,172.040 26.827,173.203 26.658 C 173.819 26.569,174.532 26.410,174.787 26.306 C 175.041 26.202,175.419 26.133,175.625 26.153 C 175.831 26.174,176.000 26.106,176.000 26.002 C 176.000 25.898,176.062 25.852,176.138 25.899 C 176.308 26.004,179.097 25.563,179.379 25.387 C 179.491 25.316,179.715 25.280,179.875 25.306 C 180.797 25.458,179.955 24.992,178.875 24.753 C 178.165 24.596,177.433 24.404,177.250 24.327 C 176.778 24.129,170.099 22.500,169.757 22.500 C 169.418 22.500,166.094 21.754,164.902 21.411 C 163.915 21.126,163.333 21.098,163.333 21.333 C 163.333 21.425,163.258 21.500,163.167 21.500 C 163.075 21.500,163.019 21.406,163.042 21.292 C 163.100 20.999,162.351 20.992,160.583 21.271 " stroke="none" fill="#3b78bd" fill-rule="evenodd"></path><path id="path1" d="M363.648 5.074 C 363.604 5.118,362.109 5.166,360.325 5.181 C 349.035 5.271,326.098 6.257,304.250 7.591 C 276.677 9.275,260.742 10.595,219.750 14.592 C 214.027 15.150,198.370 16.885,186.750 18.250 C 181.617 18.852,176.329 19.456,175.000 19.592 C 171.422 19.956,165.453 20.679,165.167 20.784 C 165.029 20.833,164.654 20.892,164.333 20.913 C 164.012 20.935,163.594 20.963,163.403 20.976 C 163.082 20.998,162.882 21.500,163.194 21.500 C 163.271 21.500,163.333 21.425,163.333 21.333 C 163.333 21.098,163.915 21.126,164.902 21.411 C 166.094 21.754,169.418 22.500,169.757 22.500 C 170.099 22.500,176.778 24.129,177.250 24.327 C 177.433 24.404,178.165 24.596,178.875 24.753 C 179.955 24.992,180.797 25.458,179.875 25.306 C 179.715 25.280,179.491 25.316,179.379 25.387 C 179.097 25.563,176.308 26.004,176.138 25.899 C 176.062 25.852,176.000 25.898,176.000 26.002 C 176.000 26.106,175.831 26.174,175.625 26.153 C 175.419 26.133,175.039 26.203,174.781 26.308 C 174.523 26.414,174.185 26.501,174.031 26.503 C 173.734 26.505,173.131 26.827,173.417 26.830 C 173.508 26.831,173.852 26.757,174.180 26.666 C 174.508 26.575,174.995 26.468,175.263 26.429 C 175.531 26.390,176.200 26.270,176.750 26.161 C 177.840 25.947,178.869 25.766,180.417 25.519 C 180.967 25.431,182.539 25.164,183.911 24.925 C 185.283 24.687,186.515 24.534,186.648 24.585 C 186.781 24.636,186.937 24.601,186.995 24.508 C 187.053 24.414,187.472 24.318,187.925 24.294 C 188.379 24.270,188.796 24.187,188.853 24.109 C 188.910 24.032,189.360 23.947,189.853 23.921 C 190.346 23.895,190.891 23.815,191.063 23.744 C 191.236 23.672,191.723 23.609,192.147 23.602 C 192.570 23.596,192.962 23.526,193.018 23.448 C 193.074 23.370,193.561 23.274,194.101 23.234 C 195.325 23.143,195.846 23.070,196.167 22.945 C 196.304 22.892,196.604 22.846,196.833 22.844 C 197.396 22.839,198.023 22.735,198.367 22.590 C 198.523 22.524,198.733 22.521,198.833 22.583 C 198.933 22.645,199.117 22.610,199.243 22.506 C 199.369 22.401,200.059 22.283,200.778 22.243 C 201.496 22.203,202.321 22.101,202.612 22.017 C 202.903 21.933,203.182 21.905,203.232 21.954 C 203.282 22.004,203.540 21.955,203.806 21.845 C 204.071 21.735,204.655 21.617,205.103 21.583 C 205.550 21.549,206.179 21.473,206.500 21.413 C 206.821 21.353,207.196 21.302,207.333 21.299 C 207.471 21.297,208.296 21.186,209.167 21.053 C 211.102 20.757,212.672 20.536,213.667 20.418 C 214.079 20.369,214.792 20.260,215.250 20.175 C 216.963 19.860,219.127 19.650,219.556 19.758 C 219.856 19.833,220.000 19.803,220.000 19.665 C 220.000 19.537,220.156 19.491,220.417 19.541 C 220.646 19.585,220.833 19.546,220.833 19.454 C 220.833 19.354,221.124 19.328,221.571 19.389 C 222.053 19.455,222.331 19.425,222.371 19.303 C 222.408 19.193,222.916 19.098,223.592 19.074 C 224.229 19.051,224.900 18.972,225.083 18.898 C 225.267 18.824,225.867 18.760,226.417 18.756 C 226.967 18.753,227.467 18.680,227.528 18.595 C 227.590 18.510,228.227 18.416,228.945 18.386 C 230.557 18.318,231.047 18.260,231.288 18.111 C 231.391 18.047,231.800 18.005,232.196 18.016 C 232.593 18.028,233.217 17.984,233.583 17.920 C 233.950 17.855,234.625 17.778,235.083 17.750 C 235.542 17.722,236.179 17.651,236.500 17.592 C 236.821 17.533,237.458 17.454,237.917 17.416 C 238.375 17.377,239.012 17.297,239.333 17.237 C 239.654 17.178,240.254 17.107,240.667 17.080 C 241.079 17.054,241.717 16.979,242.083 16.915 C 242.450 16.850,243.088 16.786,243.500 16.773 C 243.912 16.759,244.353 16.682,244.480 16.601 C 244.606 16.520,245.319 16.435,246.063 16.412 C 246.808 16.388,247.867 16.323,248.417 16.265 C 248.967 16.208,250.167 16.086,251.083 15.995 C 252.000 15.903,253.237 15.758,253.833 15.672 C 255.958 15.366,261.437 14.917,262.630 14.951 C 263.298 14.970,263.806 14.924,263.760 14.849 C 263.649 14.669,266.019 14.457,266.574 14.596 C 266.827 14.659,267.107 14.618,267.254 14.497 C 267.407 14.369,267.758 14.324,268.168 14.379 C 268.543 14.429,268.833 14.399,268.833 14.309 C 268.833 14.221,269.302 14.153,269.875 14.157 C 271.361 14.168,272.387 14.090,272.618 13.947 C 272.728 13.879,273.290 13.828,273.867 13.834 C 275.164 13.846,276.229 13.751,276.474 13.599 C 276.576 13.536,277.167 13.490,277.788 13.497 C 278.409 13.503,279.329 13.462,279.833 13.405 C 280.337 13.349,281.237 13.282,281.833 13.256 C 282.429 13.231,283.367 13.155,283.917 13.087 C 284.467 13.020,285.554 12.935,286.333 12.899 C 288.432 12.801,288.895 12.754,289.121 12.613 C 289.233 12.543,289.870 12.516,290.537 12.552 C 291.204 12.589,292.313 12.548,293.000 12.462 C 293.688 12.376,294.887 12.280,295.667 12.248 C 296.446 12.216,297.458 12.140,297.917 12.078 C 298.375 12.017,299.537 11.942,300.500 11.913 C 301.462 11.884,302.662 11.806,303.167 11.741 C 303.671 11.676,304.871 11.609,305.833 11.592 C 306.796 11.575,308.248 11.500,309.059 11.426 C 309.871 11.352,311.034 11.273,311.643 11.249 C 312.758 11.205,315.876 11.062,325.833 10.598 C 335.742 10.136,340.712 9.963,344.692 9.940 C 346.891 9.927,348.595 9.852,348.545 9.771 C 348.494 9.689,349.943 9.648,351.852 9.676 C 353.721 9.704,357.050 9.639,359.250 9.531 C 361.937 9.400,369.020 9.354,380.833 9.390 C 390.504 9.420,398.773 9.409,399.208 9.365 L 400.000 9.287 400.000 7.248 L 400.000 5.209 399.125 5.118 C 398.038 5.006,363.760 4.963,363.648 5.074 M171.907 26.929 C 171.729 27.073,171.689 27.136,171.819 27.069 C 171.948 27.002,172.286 26.891,172.569 26.824 C 173.042 26.711,173.049 26.699,172.657 26.684 C 172.422 26.674,172.085 26.785,171.907 26.929 " stroke="none" fill="#14b1d8" fill-rule="evenodd"></path><path id="path2" d="M0.000 22.518 L 0.000 44.869 0.375 44.779 C 0.986 44.632,15.238 42.226,19.750 41.508 C 22.042 41.144,27.329 40.285,31.500 39.600 C 45.307 37.332,73.661 32.970,86.250 31.176 C 90.742 30.537,98.092 29.482,102.583 28.834 C 116.323 26.850,150.032 22.377,160.256 21.181 C 162.636 20.903,169.533 20.075,175.583 19.342 C 209.288 15.257,247.686 11.489,280.917 9.006 C 283.392 8.822,286.392 8.595,287.583 8.502 C 292.360 8.132,310.326 6.996,315.167 6.758 C 316.221 6.706,318.471 6.590,320.167 6.499 C 325.541 6.212,339.547 5.662,349.833 5.336 C 361.488 4.965,375.432 4.794,387.375 4.875 L 400.000 4.960 400.000 2.564 L 400.000 0.167 200.000 0.167 L 0.000 0.167 0.000 22.518 " stroke="none" fill="#444444" fill-rule="evenodd"></path><path id="path3" d="M358.360 9.513 C 353.638 9.711,354.537 9.892,359.652 9.773 C 362.165 9.715,366.046 9.667,368.277 9.667 C 370.870 9.667,372.333 9.607,372.333 9.500 C 372.333 9.305,363.104 9.314,358.360 9.513 M381.447 9.458 C 383.663 9.484,387.338 9.484,389.613 9.458 C 391.889 9.432,390.075 9.411,385.583 9.411 C 381.092 9.410,379.230 9.432,381.447 9.458 M398.833 9.500 C 398.833 9.592,399.096 9.667,399.417 9.667 C 399.738 9.667,400.000 9.592,400.000 9.500 C 400.000 9.408,399.738 9.333,399.417 9.333 C 399.096 9.333,398.833 9.408,398.833 9.500 M348.586 9.838 C 348.718 10.052,353.126 10.034,353.259 9.819 C 353.314 9.730,352.342 9.667,350.917 9.667 C 349.294 9.667,348.516 9.724,348.586 9.838 M344.292 9.957 C 344.865 9.989,345.802 9.989,346.375 9.957 C 346.948 9.924,346.479 9.898,345.333 9.898 C 344.188 9.898,343.719 9.924,344.292 9.957 M339.048 10.123 C 339.578 10.157,340.403 10.156,340.881 10.123 C 341.359 10.089,340.925 10.062,339.917 10.062 C 338.908 10.063,338.517 10.090,339.048 10.123 M334.714 10.290 C 335.245 10.323,336.070 10.323,336.548 10.289 C 337.026 10.256,336.592 10.229,335.583 10.229 C 334.575 10.229,334.184 10.257,334.714 10.290 M330.297 10.456 C 330.782 10.490,331.532 10.490,331.964 10.456 C 332.396 10.421,332.000 10.394,331.083 10.394 C 330.167 10.395,329.813 10.423,330.297 10.456 M326.713 10.623 C 327.152 10.657,327.827 10.657,328.213 10.622 C 328.600 10.587,328.242 10.559,327.417 10.559 C 326.592 10.560,326.275 10.588,326.713 10.623 M322.792 10.789 C 323.181 10.824,323.819 10.824,324.208 10.789 C 324.598 10.754,324.279 10.725,323.500 10.725 C 322.721 10.725,322.402 10.754,322.792 10.789 M319.625 10.955 C 320.015 10.990,320.652 10.990,321.042 10.955 C 321.431 10.920,321.112 10.892,320.333 10.892 C 319.554 10.892,319.235 10.920,319.625 10.955 M313.250 11.169 C 312.883 11.235,313.783 11.252,315.250 11.205 C 316.717 11.159,317.948 11.093,317.986 11.060 C 318.114 10.950,313.927 11.045,313.250 11.169 M310.000 11.338 C 309.137 11.439,309.165 11.447,310.486 11.473 C 311.258 11.488,311.858 11.473,311.819 11.440 C 311.640 11.285,310.832 11.240,310.000 11.338 M308.000 11.500 L 307.250 11.617 308.125 11.642 C 308.614 11.656,309.000 11.593,309.000 11.500 C 309.000 11.408,308.944 11.345,308.875 11.358 C 308.806 11.372,308.412 11.436,308.000 11.500 M303.917 11.667 C 303.691 11.763,303.989 11.810,304.833 11.810 C 305.678 11.810,305.975 11.763,305.750 11.667 C 305.567 11.588,305.154 11.523,304.833 11.523 C 304.512 11.523,304.100 11.588,303.917 11.667 M302.167 11.833 L 301.417 11.950 302.375 11.975 C 302.919 11.989,303.333 11.928,303.333 11.833 C 303.333 11.655,303.312 11.655,302.167 11.833 M298.667 12.000 C 298.492 12.113,298.769 12.162,299.583 12.162 C 300.397 12.162,300.674 12.113,300.500 12.000 C 300.362 11.911,299.950 11.838,299.583 11.838 C 299.217 11.838,298.804 11.911,298.667 12.000 M297.083 12.167 L 296.417 12.286 297.292 12.310 C 297.780 12.323,298.167 12.260,298.167 12.167 C 298.167 11.986,298.090 11.986,297.083 12.167 M294.083 12.333 C 293.850 12.434,294.075 12.479,294.833 12.486 C 295.591 12.492,295.841 12.446,295.667 12.333 C 295.364 12.137,294.539 12.137,294.083 12.333 M289.083 12.667 C 289.019 12.771,289.373 12.832,290.032 12.831 C 290.772 12.829,291.009 12.780,290.833 12.667 C 290.504 12.454,289.215 12.454,289.083 12.667 M292.377 12.620 C 292.631 12.658,293.006 12.657,293.211 12.617 C 293.416 12.578,293.208 12.546,292.750 12.548 C 292.292 12.549,292.124 12.581,292.377 12.620 M287.667 12.833 C 287.097 12.953,287.102 12.957,287.875 12.978 C 288.310 12.990,288.667 12.925,288.667 12.833 C 288.667 12.650,288.535 12.650,287.667 12.833 M284.917 13.000 C 284.677 13.103,284.856 13.147,285.552 13.155 C 286.157 13.162,286.481 13.104,286.417 13.000 C 286.293 12.800,285.382 12.800,284.917 13.000 M283.250 13.167 C 282.823 13.275,282.877 13.297,283.625 13.314 C 284.110 13.325,284.500 13.259,284.500 13.167 C 284.500 12.978,283.991 12.978,283.250 13.167 M280.667 13.333 C 280.486 13.450,280.636 13.496,281.208 13.497 C 281.644 13.499,282.000 13.425,282.000 13.333 C 282.000 13.120,280.996 13.120,280.667 13.333 M279.000 13.500 C 278.817 13.618,278.940 13.662,279.458 13.664 C 279.848 13.666,280.167 13.592,280.167 13.500 C 280.167 13.287,279.329 13.287,279.000 13.500 M276.417 13.667 C 276.353 13.769,276.637 13.833,277.157 13.833 C 277.621 13.833,278.000 13.758,278.000 13.667 C 278.000 13.575,277.667 13.500,277.260 13.500 C 276.853 13.500,276.473 13.575,276.417 13.667 M275.000 13.833 C 274.817 13.952,274.940 13.996,275.458 13.997 C 275.848 13.999,276.167 13.925,276.167 13.833 C 276.167 13.621,275.329 13.621,275.000 13.833 M272.583 14.000 C 272.520 14.102,272.776 14.167,273.240 14.167 C 273.658 14.167,274.000 14.092,274.000 14.000 C 274.000 13.908,273.704 13.833,273.343 13.833 C 272.982 13.833,272.640 13.908,272.583 14.000 M271.000 14.167 C 270.817 14.285,270.940 14.329,271.458 14.331 C 271.848 14.332,272.167 14.258,272.167 14.167 C 272.167 13.954,271.329 13.954,271.000 14.167 M268.833 14.333 C 268.833 14.425,269.133 14.500,269.500 14.500 C 269.867 14.500,270.167 14.425,270.167 14.333 C 270.167 14.242,269.867 14.167,269.500 14.167 C 269.133 14.167,268.833 14.242,268.833 14.333 M267.250 14.500 C 267.188 14.601,267.415 14.667,267.823 14.667 C 268.196 14.667,268.500 14.592,268.500 14.500 C 268.500 14.408,268.242 14.333,267.927 14.333 C 267.611 14.333,267.307 14.408,267.250 14.500 M264.417 14.651 C 263.958 14.706,263.669 14.806,263.775 14.874 C 264.026 15.037,266.500 14.827,266.500 14.642 C 266.500 14.489,265.754 14.493,264.417 14.651 M260.833 15.000 C 260.156 15.105,260.140 15.118,260.667 15.127 C 260.987 15.133,261.625 15.079,262.083 15.008 C 262.872 14.885,262.881 14.878,262.250 14.881 C 261.883 14.882,261.246 14.936,260.833 15.000 M258.627 15.285 C 258.834 15.324,259.134 15.323,259.294 15.281 C 259.453 15.239,259.283 15.207,258.917 15.209 C 258.550 15.211,258.420 15.245,258.627 15.285 M257.044 15.453 C 257.297 15.491,257.672 15.490,257.877 15.451 C 258.082 15.411,257.875 15.380,257.417 15.381 C 256.958 15.382,256.791 15.415,257.044 15.453 M253.833 15.674 C 253.580 15.760,253.973 15.778,254.833 15.720 C 255.612 15.667,256.281 15.596,256.319 15.562 C 256.459 15.437,254.237 15.538,253.833 15.674 M251.960 15.951 C 252.168 15.991,252.468 15.990,252.627 15.948 C 252.786 15.906,252.617 15.874,252.250 15.875 C 251.883 15.877,251.753 15.911,251.960 15.951 M250.627 16.118 C 250.834 16.158,251.134 16.156,251.294 16.115 C 251.453 16.073,251.283 16.040,250.917 16.042 C 250.550 16.044,250.420 16.078,250.627 16.118 M247.667 16.333 C 247.272 16.460,247.278 16.468,247.792 16.483 C 248.090 16.493,248.333 16.425,248.333 16.333 C 248.333 16.145,248.255 16.145,247.667 16.333 M248.792 16.284 C 248.998 16.324,249.335 16.324,249.542 16.284 C 249.748 16.245,249.579 16.212,249.167 16.212 C 248.754 16.212,248.585 16.245,248.792 16.284 M244.956 16.493 C 244.012 16.676,243.966 16.896,244.898 16.773 C 245.346 16.715,245.890 16.667,246.107 16.667 C 246.323 16.667,246.500 16.592,246.500 16.500 C 246.500 16.313,245.897 16.311,244.956 16.493 M242.667 16.833 C 242.481 16.953,242.580 16.996,243.052 16.997 C 243.433 16.999,243.645 16.933,243.583 16.833 C 243.453 16.623,242.993 16.623,242.667 16.833 M241.583 17.000 C 241.304 17.120,241.338 17.145,241.792 17.155 C 242.090 17.161,242.333 17.092,242.333 17.000 C 242.333 16.802,242.044 16.802,241.583 17.000 M239.833 17.167 C 239.648 17.287,239.747 17.329,240.218 17.331 C 240.599 17.332,240.812 17.267,240.750 17.167 C 240.620 16.956,240.159 16.956,239.833 17.167 M238.750 17.333 C 238.252 17.460,238.253 17.461,238.875 17.480 C 239.219 17.491,239.500 17.425,239.500 17.333 C 239.500 17.150,239.472 17.150,238.750 17.333 M237.083 17.500 C 236.817 17.614,236.878 17.646,237.385 17.655 C 237.768 17.662,237.979 17.601,237.917 17.500 C 237.795 17.303,237.541 17.303,237.083 17.500 M236.000 17.667 C 235.605 17.793,235.612 17.801,236.125 17.817 C 236.423 17.826,236.667 17.758,236.667 17.667 C 236.667 17.478,236.588 17.478,236.000 17.667 M234.167 17.833 C 233.981 17.953,234.080 17.996,234.552 17.997 C 234.933 17.999,235.145 17.933,235.083 17.833 C 234.953 17.623,234.493 17.623,234.167 17.833 M233.083 18.000 C 232.804 18.120,232.838 18.145,233.292 18.155 C 233.590 18.161,233.833 18.092,233.833 18.000 C 233.833 17.802,233.544 17.802,233.083 18.000 M231.250 18.167 C 231.189 18.266,231.387 18.333,231.740 18.333 C 232.066 18.333,232.333 18.258,232.333 18.167 C 232.333 18.075,232.113 18.000,231.843 18.000 C 231.574 18.000,231.307 18.075,231.250 18.167 M230.333 18.333 C 230.139 18.459,230.185 18.495,230.542 18.497 C 230.794 18.499,231.000 18.425,231.000 18.333 C 231.000 18.123,230.659 18.123,230.333 18.333 M227.958 18.453 C 227.706 18.491,227.500 18.602,227.500 18.700 C 227.500 18.812,227.730 18.839,228.125 18.774 C 228.469 18.717,228.961 18.670,229.218 18.669 C 229.487 18.667,229.643 18.596,229.583 18.500 C 229.482 18.336,228.853 18.317,227.958 18.453 M225.500 18.787 C 224.756 18.920,224.678 19.221,225.417 19.107 C 225.783 19.050,226.290 19.003,226.542 19.002 C 226.794 19.001,227.000 18.925,227.000 18.833 C 227.000 18.667,226.290 18.645,225.500 18.787 M222.792 19.119 C 222.540 19.158,222.333 19.269,222.333 19.366 C 222.333 19.478,222.563 19.506,222.958 19.440 C 223.302 19.383,223.790 19.336,224.042 19.335 C 224.294 19.334,224.500 19.258,224.500 19.167 C 224.500 19.003,223.703 18.981,222.792 19.119 M220.833 19.500 C 220.833 19.592,221.058 19.667,221.333 19.667 C 221.608 19.667,221.833 19.592,221.833 19.500 C 221.833 19.408,221.608 19.333,221.333 19.333 C 221.058 19.333,220.833 19.408,220.833 19.500 M220.000 19.667 C 220.000 19.758,220.150 19.833,220.333 19.833 C 220.517 19.833,220.667 19.758,220.667 19.667 C 220.667 19.575,220.517 19.500,220.333 19.500 C 220.150 19.500,220.000 19.575,220.000 19.667 M217.833 19.833 C 217.331 19.939,217.394 19.959,218.282 19.978 C 218.849 19.990,219.360 19.925,219.417 19.833 C 219.534 19.644,218.732 19.644,217.833 19.833 M215.250 20.176 C 215.030 20.276,215.257 20.293,215.917 20.226 C 216.467 20.171,216.948 20.097,216.986 20.062 C 217.134 19.929,215.565 20.032,215.250 20.176 M212.903 20.527 C 212.726 20.601,213.029 20.616,213.583 20.560 C 214.133 20.504,214.619 20.426,214.662 20.386 C 214.799 20.261,213.238 20.386,212.903 20.527 M210.667 20.833 C 210.082 21.021,210.693 21.027,211.583 20.843 L 212.250 20.705 211.667 20.702 C 211.346 20.701,210.896 20.760,210.667 20.833 M208.500 21.167 C 208.057 21.260,208.017 21.292,208.333 21.302 C 208.563 21.309,209.050 21.252,209.417 21.176 C 209.972 21.061,210.000 21.039,209.583 21.041 C 209.308 21.043,208.821 21.099,208.500 21.167 M206.917 21.345 C 206.645 21.452,206.684 21.479,207.125 21.488 C 207.688 21.500,207.816 21.425,207.458 21.291 C 207.344 21.248,207.100 21.272,206.917 21.345 M206.000 21.500 C 205.798 21.631,205.822 21.662,206.125 21.664 C 206.331 21.666,206.500 21.592,206.500 21.500 C 206.500 21.291,206.323 21.291,206.000 21.500 M204.750 21.582 C 204.658 21.612,204.368 21.685,204.105 21.744 C 203.359 21.909,203.715 22.038,204.566 21.911 C 204.986 21.848,205.289 21.729,205.238 21.648 C 205.145 21.497,205.045 21.483,204.750 21.582 M202.167 22.101 C 201.662 22.211,201.438 22.304,201.667 22.308 C 202.298 22.317,203.439 22.087,203.250 21.988 C 203.158 21.940,202.671 21.991,202.167 22.101 M199.833 22.287 C 199.090 22.420,199.011 22.721,199.750 22.607 C 200.117 22.550,200.510 22.503,200.625 22.502 C 200.740 22.501,200.833 22.425,200.833 22.333 C 200.833 22.164,200.583 22.152,199.833 22.287 M198.250 22.667 C 198.191 22.762,198.335 22.833,198.583 22.833 C 198.832 22.833,198.975 22.762,198.917 22.667 C 198.860 22.575,198.710 22.500,198.583 22.500 C 198.457 22.500,198.307 22.575,198.250 22.667 M197.333 22.833 C 197.139 22.959,197.185 22.995,197.542 22.997 C 197.794 22.999,198.000 22.925,198.000 22.833 C 198.000 22.623,197.659 22.623,197.333 22.833 M196.083 23.000 C 196.025 23.095,196.165 23.167,196.407 23.167 C 196.641 23.167,196.833 23.092,196.833 23.000 C 196.833 22.908,196.688 22.833,196.510 22.833 C 196.332 22.833,196.140 22.908,196.083 23.000 M195.167 23.167 C 194.972 23.293,195.018 23.329,195.375 23.331 C 195.627 23.332,195.833 23.258,195.833 23.167 C 195.833 22.956,195.493 22.956,195.167 23.167 M193.458 23.286 C 193.206 23.324,193.000 23.435,193.000 23.533 C 193.000 23.645,193.230 23.672,193.625 23.607 C 193.969 23.550,194.348 23.503,194.468 23.502 C 194.588 23.501,194.640 23.425,194.583 23.333 C 194.480 23.166,194.302 23.158,193.458 23.286 M191.500 23.620 C 190.756 23.754,190.678 24.055,191.417 23.940 C 191.783 23.883,192.177 23.836,192.292 23.835 C 192.406 23.834,192.500 23.758,192.500 23.667 C 192.500 23.497,192.249 23.486,191.500 23.620 M189.292 23.953 C 189.040 23.991,188.833 24.102,188.833 24.200 C 188.833 24.312,189.063 24.339,189.458 24.274 C 189.802 24.217,190.177 24.170,190.292 24.169 C 190.406 24.167,190.500 24.092,190.500 24.000 C 190.500 23.834,190.163 23.821,189.292 23.953 M187.458 24.286 C 187.206 24.324,187.000 24.435,187.000 24.532 C 187.000 24.641,187.200 24.668,187.521 24.604 C 187.807 24.547,188.182 24.500,188.354 24.500 C 188.526 24.500,188.667 24.425,188.667 24.333 C 188.667 24.167,188.329 24.154,187.458 24.286 M185.458 24.619 C 185.206 24.658,185.000 24.768,185.000 24.864 C 185.000 24.964,185.160 24.996,185.375 24.938 C 185.581 24.883,185.956 24.837,186.208 24.836 C 186.460 24.834,186.667 24.758,186.667 24.667 C 186.667 24.501,186.329 24.487,185.458 24.619 M183.417 25.000 C 182.971 25.113,182.962 25.127,183.333 25.127 C 183.563 25.127,183.975 25.070,184.250 25.000 C 184.696 24.887,184.705 24.873,184.333 24.873 C 184.104 24.873,183.692 24.930,183.417 25.000 M181.500 25.342 C 181.219 25.437,181.355 25.452,181.917 25.387 C 182.375 25.334,182.781 25.263,182.819 25.229 C 182.951 25.112,181.916 25.200,181.500 25.342 M179.500 25.667 C 179.184 25.871,179.696 25.871,180.333 25.667 C 180.742 25.536,180.740 25.533,180.250 25.519 C 179.975 25.511,179.637 25.578,179.500 25.667 M177.583 26.000 C 177.140 26.190,177.835 26.190,178.583 26.000 L 179.083 25.873 178.500 25.865 C 178.179 25.860,177.767 25.921,177.583 26.000 M175.917 26.333 L 175.583 26.477 175.917 26.469 C 176.100 26.464,176.475 26.403,176.750 26.333 L 177.250 26.206 176.750 26.198 C 176.475 26.194,176.100 26.255,175.917 26.333 M174.833 26.500 L 174.417 26.633 174.875 26.650 C 175.127 26.659,175.333 26.592,175.333 26.500 C 175.333 26.408,175.315 26.341,175.292 26.350 C 175.269 26.359,175.063 26.427,174.833 26.500 M172.917 26.749 C 172.825 26.779,172.535 26.852,172.272 26.910 C 171.525 27.076,171.882 27.205,172.733 27.077 C 173.153 27.014,173.455 26.896,173.405 26.815 C 173.312 26.664,173.212 26.650,172.917 26.749 M170.833 27.120 C 170.604 27.161,170.342 27.273,170.250 27.369 C 170.135 27.490,170.256 27.512,170.646 27.439 C 170.955 27.381,171.311 27.333,171.438 27.333 C 171.564 27.333,171.667 27.258,171.667 27.167 C 171.667 26.996,171.559 26.990,170.833 27.120 M169.167 27.443 C 169.029 27.489,168.812 27.560,168.684 27.600 C 168.557 27.641,168.493 27.715,168.542 27.765 C 168.680 27.903,169.833 27.650,169.833 27.481 C 169.833 27.323,169.572 27.308,169.167 27.443 M167.333 27.787 C 166.836 27.876,166.475 28.167,166.862 28.167 C 167.387 28.167,168.167 27.955,168.167 27.813 C 168.167 27.662,168.048 27.659,167.333 27.787 M165.583 28.119 C 164.964 28.268,164.872 28.553,165.479 28.439 C 165.789 28.381,166.145 28.333,166.271 28.333 C 166.397 28.333,166.500 28.258,166.500 28.167 C 166.500 27.995,166.169 27.978,165.583 28.119 M163.792 28.453 C 163.540 28.491,163.333 28.602,163.333 28.699 C 163.333 28.807,163.533 28.835,163.854 28.771 C 164.141 28.714,164.441 28.667,164.521 28.667 C 164.601 28.667,164.667 28.592,164.667 28.500 C 164.667 28.331,164.613 28.328,163.792 28.453 M162.125 28.786 C 161.873 28.824,161.667 28.935,161.667 29.032 C 161.667 29.141,161.867 29.168,162.188 29.104 C 162.474 29.047,162.811 29.000,162.938 29.000 C 163.064 29.000,163.167 28.925,163.167 28.833 C 163.167 28.666,162.975 28.657,162.125 28.786 M159.583 29.298 C 158.334 29.572,158.225 29.614,158.374 29.763 C 158.509 29.898,161.333 29.295,161.333 29.132 C 161.333 28.958,160.986 28.991,159.583 29.298 M157.000 29.833 C 156.644 29.947,156.685 29.969,157.282 29.983 C 157.666 29.993,158.027 29.925,158.083 29.833 C 158.203 29.639,157.607 29.639,157.000 29.833 M155.417 30.167 L 155.083 30.310 155.417 30.305 C 155.600 30.302,155.938 30.240,156.167 30.167 L 156.583 30.033 156.167 30.028 C 155.938 30.026,155.600 30.088,155.417 30.167 M153.583 30.500 C 153.400 30.580,152.961 30.692,152.608 30.750 C 152.255 30.808,152.005 30.894,152.053 30.942 C 152.192 31.081,154.000 30.659,154.000 30.488 C 154.000 30.311,154.022 30.310,153.583 30.500 M150.500 31.167 C 150.192 31.366,150.635 31.366,151.417 31.167 L 151.917 31.039 151.333 31.022 C 151.012 31.013,150.637 31.078,150.500 31.167 M149.500 31.297 C 148.978 31.378,148.636 31.673,149.092 31.650 C 149.622 31.623,150.259 31.409,150.082 31.318 C 149.991 31.271,149.729 31.262,149.500 31.297 M147.833 31.713 C 147.512 31.803,147.337 31.908,147.443 31.947 C 147.707 32.044,148.780 31.754,148.578 31.640 C 148.489 31.590,148.154 31.623,147.833 31.713 M145.639 32.139 C 144.609 32.396,143.723 32.834,144.667 32.619 C 144.896 32.567,145.551 32.434,146.122 32.324 C 146.693 32.214,147.120 32.059,147.070 31.979 C 146.961 31.802,147.009 31.797,145.639 32.139 M142.750 32.766 C 141.497 33.064,141.262 33.151,141.379 33.268 C 141.520 33.409,144.000 32.824,144.000 32.650 C 144.000 32.468,143.999 32.469,142.750 32.766 M140.208 33.284 C 140.002 33.324,139.833 33.436,139.833 33.532 C 139.833 33.641,140.034 33.668,140.354 33.604 C 140.641 33.547,140.941 33.500,141.021 33.500 C 141.101 33.500,141.167 33.425,141.167 33.333 C 141.167 33.165,140.898 33.152,140.208 33.284 M138.875 33.618 C 138.669 33.657,138.500 33.768,138.500 33.864 C 138.500 33.964,138.661 33.996,138.875 33.938 C 139.081 33.883,139.344 33.837,139.458 33.836 C 139.573 33.834,139.667 33.758,139.667 33.667 C 139.667 33.497,139.541 33.489,138.875 33.618 M137.375 33.951 C 137.169 33.991,137.000 34.102,137.000 34.199 C 137.000 34.307,137.201 34.335,137.521 34.271 C 137.807 34.214,138.112 34.167,138.197 34.167 C 138.283 34.167,138.307 34.092,138.250 34.000 C 138.145 33.830,138.035 33.824,137.375 33.951 M135.542 34.377 C 134.925 34.525,134.551 34.833,134.987 34.833 C 135.408 34.833,136.833 34.425,136.833 34.305 C 136.833 34.135,136.464 34.155,135.542 34.377 M134.167 34.833 C 134.167 34.925,134.279 35.000,134.417 35.000 C 134.554 35.000,134.667 34.925,134.667 34.833 C 134.667 34.742,134.554 34.667,134.417 34.667 C 134.279 34.667,134.167 34.742,134.167 34.833 M132.614 35.094 C 132.173 35.214,131.723 35.353,131.614 35.401 C 131.262 35.558,132.664 35.299,133.384 35.074 C 134.288 34.792,133.663 34.807,132.614 35.094 M130.092 35.652 C 130.041 35.736,129.680 35.862,129.291 35.933 C 128.902 36.003,128.696 36.084,128.833 36.112 C 128.971 36.140,129.608 36.021,130.250 35.847 C 131.266 35.571,131.337 35.528,130.802 35.515 C 130.463 35.507,130.144 35.568,130.092 35.652 M127.333 36.333 C 127.196 36.422,126.882 36.496,126.635 36.497 C 126.388 36.499,126.134 36.585,126.069 36.690 C 125.934 36.909,126.659 36.803,127.845 36.431 C 128.515 36.221,128.537 36.198,128.083 36.186 C 127.808 36.178,127.471 36.244,127.333 36.333 M124.750 37.000 C 124.632 37.192,124.902 37.192,125.500 37.000 C 125.898 36.873,125.893 36.866,125.385 36.850 C 125.092 36.841,124.807 36.908,124.750 37.000 M123.917 37.119 C 123.733 37.163,123.508 37.277,123.417 37.372 C 123.302 37.491,123.381 37.513,123.667 37.442 C 123.896 37.385,124.177 37.337,124.292 37.336 C 124.406 37.334,124.500 37.258,124.500 37.167 C 124.500 36.992,124.458 36.989,123.917 37.119 M121.917 37.623 C 120.844 37.898,120.728 37.950,120.868 38.090 C 121.003 38.225,123.167 37.650,123.167 37.480 C 123.167 37.302,123.165 37.303,121.917 37.623 M119.875 38.118 C 119.669 38.157,119.500 38.268,119.500 38.364 C 119.500 38.464,119.661 38.496,119.875 38.438 C 120.081 38.383,120.344 38.337,120.458 38.336 C 120.573 38.334,120.667 38.258,120.667 38.167 C 120.667 37.997,120.541 37.989,119.875 38.118 M118.750 38.452 C 118.567 38.496,118.342 38.610,118.250 38.706 C 118.136 38.824,118.214 38.846,118.500 38.775 C 118.729 38.718,119.010 38.670,119.125 38.669 C 119.240 38.668,119.333 38.592,119.333 38.500 C 119.333 38.325,119.291 38.322,118.750 38.452 M115.583 39.256 C 114.392 39.562,112.779 39.996,112.000 40.221 C 111.221 40.446,110.368 40.679,110.105 40.740 C 109.842 40.800,109.667 40.889,109.715 40.937 C 109.763 40.985,110.653 40.784,111.693 40.489 C 112.733 40.195,113.958 39.898,114.417 39.830 C 115.670 39.644,118.000 38.984,118.000 38.815 C 118.000 38.628,118.136 38.603,115.583 39.256 M108.500 41.167 C 108.182 41.372,108.524 41.372,109.167 41.167 L 109.583 41.033 109.167 41.019 C 108.938 41.011,108.638 41.078,108.500 41.167 M107.262 41.481 C 107.212 41.562,106.964 41.667,106.710 41.714 C 105.379 41.962,103.947 42.355,103.758 42.525 C 103.493 42.763,103.830 42.695,106.000 42.077 C 108.201 41.449,108.479 41.333,107.788 41.333 C 107.549 41.333,107.312 41.400,107.262 41.481 M102.417 42.789 C 101.471 43.094,101.407 43.129,101.541 43.263 C 101.671 43.393,103.500 42.808,103.500 42.636 C 103.500 42.457,103.403 42.471,102.417 42.789 M99.750 43.592 C 99.108 43.807,98.452 43.987,98.292 43.992 C 98.022 43.999,97.853 44.333,98.118 44.333 C 98.495 44.333,101.333 43.430,101.333 43.311 C 101.333 43.103,101.061 43.151,99.750 43.592 M96.417 44.532 C 95.206 44.888,93.331 45.569,93.917 45.440 C 94.579 45.294,96.597 44.792,97.208 44.621 C 97.552 44.525,97.833 44.384,97.833 44.307 C 97.833 44.122,97.780 44.131,96.417 44.532 M92.333 45.764 C 92.104 45.891,91.654 46.039,91.333 46.093 C 91.013 46.147,90.600 46.255,90.417 46.334 C 90.050 46.492,89.336 46.709,88.125 47.030 C 87.690 47.145,87.333 47.306,87.333 47.388 C 87.333 47.469,87.432 47.498,87.553 47.451 C 87.674 47.405,88.667 47.100,89.761 46.775 C 92.476 45.966,93.685 45.523,93.167 45.529 C 92.938 45.531,92.563 45.637,92.333 45.764 M85.750 47.758 C 85.108 47.984,84.479 48.208,84.351 48.255 C 84.223 48.303,84.160 48.382,84.209 48.431 C 84.341 48.563,87.167 47.654,87.167 47.480 C 87.167 47.274,87.063 47.294,85.750 47.758 M82.958 48.615 C 82.798 48.657,82.667 48.769,82.667 48.863 C 82.667 48.958,82.785 48.990,82.930 48.934 C 83.075 48.879,83.263 48.833,83.347 48.833 C 83.431 48.833,83.500 48.758,83.500 48.667 C 83.500 48.493,83.444 48.488,82.958 48.615 M79.917 49.621 C 78.908 49.952,78.170 50.251,78.276 50.286 C 78.382 50.322,78.748 50.234,79.088 50.092 C 79.429 49.950,79.835 49.833,79.990 49.833 C 80.486 49.833,82.000 49.326,82.000 49.160 C 82.000 48.940,81.985 48.944,79.917 49.621 M76.958 50.595 C 76.706 50.732,76.500 50.795,76.500 50.735 C 76.500 50.675,76.406 50.700,76.292 50.791 C 76.177 50.882,75.671 51.091,75.167 51.255 C 74.662 51.420,74.330 51.582,74.427 51.614 C 74.524 51.647,75.386 51.375,76.343 51.011 C 77.300 50.647,77.933 50.348,77.750 50.348 C 77.567 50.347,77.210 50.459,76.958 50.595 M72.750 52.000 C 72.383 52.170,71.999 52.314,71.895 52.321 C 71.792 52.328,71.417 52.459,71.062 52.613 C 70.707 52.766,70.271 52.918,70.093 52.950 C 69.718 53.017,69.574 53.129,69.700 53.256 C 69.778 53.334,73.972 51.897,74.153 51.731 C 74.364 51.536,73.318 51.737,72.750 52.000 M68.333 53.521 C 67.829 53.709,67.285 53.902,67.125 53.951 C 66.965 53.999,66.833 54.113,66.833 54.204 C 66.833 54.295,66.927 54.335,67.042 54.293 C 67.156 54.252,67.756 54.038,68.375 53.819 C 68.994 53.599,69.500 53.363,69.500 53.293 C 69.500 53.111,69.357 53.139,68.333 53.521 M65.083 54.686 C 64.350 54.965,63.337 55.345,62.833 55.532 C 62.329 55.719,61.679 55.976,61.388 56.104 C 61.098 56.232,60.610 56.379,60.305 56.432 C 60.000 56.484,59.581 56.596,59.375 56.680 C 59.169 56.764,58.831 56.903,58.625 56.987 C 58.419 57.072,57.894 57.269,57.458 57.426 C 57.023 57.583,56.667 57.777,56.667 57.856 C 56.667 58.054,56.704 58.047,57.702 57.647 C 58.187 57.453,59.183 57.082,59.917 56.823 C 60.650 56.564,62.137 56.010,63.222 55.592 C 64.307 55.175,65.334 54.833,65.506 54.833 C 65.907 54.833,66.667 54.488,66.667 54.307 C 66.667 54.101,66.547 54.130,65.083 54.686 M54.750 58.512 C 53.925 58.865,53.175 59.184,53.083 59.221 C 52.992 59.258,52.962 59.337,53.018 59.398 C 53.161 59.553,56.379 58.280,56.461 58.035 C 56.554 57.756,56.450 57.785,54.750 58.512 M50.167 60.279 C 48.844 60.785,48.626 60.874,47.627 61.317 C 47.192 61.509,46.761 61.667,46.668 61.667 C 46.576 61.667,46.500 61.743,46.500 61.836 C 46.500 61.933,46.766 61.892,47.125 61.740 C 47.469 61.594,48.538 61.175,49.500 60.808 C 50.462 60.441,51.321 60.072,51.408 59.987 C 51.649 59.753,51.371 59.818,50.167 60.279 M45.667 62.167 C 45.667 62.219,45.535 62.273,45.375 62.285 C 45.121 62.305,43.631 62.897,41.875 63.675 C 41.440 63.868,41.141 64.167,41.384 64.167 C 41.484 64.167,45.853 62.339,46.132 62.180 C 46.377 62.041,46.365 62.022,46.042 62.045 C 45.835 62.059,45.667 62.114,45.667 62.167 M38.581 65.091 C 37.207 65.679,35.877 66.278,35.625 66.423 C 35.373 66.567,35.167 66.646,35.167 66.598 C 35.167 66.550,34.737 66.733,34.213 67.005 C 33.688 67.277,33.205 67.500,33.139 67.500 C 33.074 67.500,32.373 67.800,31.583 68.167 C 30.793 68.533,30.120 68.833,30.087 68.833 C 29.966 68.833,26.167 70.705,26.167 70.764 C 26.167 70.852,26.880 70.568,27.654 70.173 C 28.020 69.986,28.420 69.833,28.543 69.833 C 28.666 69.833,29.380 69.532,30.131 69.164 C 30.882 68.796,32.154 68.204,32.957 67.849 C 33.760 67.494,35.054 66.906,35.833 66.542 C 38.125 65.473,39.549 64.876,40.083 64.760 C 40.601 64.647,41.281 64.225,41.152 64.097 C 41.112 64.056,39.955 64.504,38.581 65.091 M23.083 72.113 C 20.792 73.261,20.737 73.293,20.849 73.405 C 20.936 73.492,25.667 71.221,25.667 71.092 C 25.667 70.876,25.126 71.090,23.083 72.113 M17.750 74.777 C 16.192 75.570,14.242 76.554,13.417 76.962 C 12.592 77.371,11.017 78.198,9.917 78.801 C 8.817 79.403,6.867 80.471,5.583 81.174 C 0.729 83.832,0.007 84.255,0.004 84.451 C 0.002 84.562,0.806 84.194,1.792 83.634 C 2.777 83.074,3.921 82.430,4.333 82.203 C 4.746 81.976,5.201 81.688,5.345 81.563 C 5.489 81.438,6.689 80.782,8.011 80.105 C 10.622 78.769,12.844 77.593,14.417 76.714 C 15.405 76.161,16.860 75.445,19.375 74.272 C 20.085 73.940,20.667 73.594,20.667 73.501 C 20.667 73.275,20.914 73.167,17.750 74.777 " stroke="none" fill="#cde1f0" fill-rule="evenodd"></path><path id="path4" d="M371.219 4.958 C 372.576 4.986,374.751 4.986,376.052 4.958 C 377.353 4.930,376.242 4.907,373.583 4.907 C 370.925 4.907,369.861 4.930,371.219 4.958 M387.375 4.958 C 388.635 4.986,390.698 4.986,391.958 4.958 C 393.219 4.930,392.188 4.906,389.667 4.906 C 387.146 4.906,386.115 4.930,387.375 4.958 M360.465 5.124 C 361.041 5.156,361.941 5.156,362.465 5.123 C 362.988 5.090,362.517 5.063,361.417 5.064 C 360.317 5.064,359.888 5.091,360.465 5.124 M399.208 5.115 C 399.369 5.157,399.631 5.157,399.792 5.115 C 399.952 5.073,399.821 5.039,399.500 5.039 C 399.179 5.039,399.048 5.073,399.208 5.115 M353.542 5.289 C 353.977 5.324,354.690 5.324,355.125 5.289 C 355.560 5.255,355.204 5.227,354.333 5.227 C 353.462 5.227,353.106 5.255,353.542 5.289 M347.875 5.455 C 348.219 5.491,348.781 5.491,349.125 5.455 C 349.469 5.419,349.188 5.389,348.500 5.389 C 347.813 5.389,347.531 5.419,347.875 5.455 M342.711 5.620 C 342.964 5.658,343.339 5.657,343.544 5.617 C 343.749 5.578,343.542 5.546,343.083 5.548 C 342.625 5.549,342.457 5.581,342.711 5.620 M338.377 5.786 C 338.631 5.825,339.006 5.824,339.211 5.784 C 339.416 5.744,339.208 5.713,338.750 5.714 C 338.292 5.716,338.124 5.748,338.377 5.786 M333.625 5.954 C 333.923 5.991,334.410 5.991,334.708 5.954 C 335.006 5.917,334.762 5.887,334.167 5.887 C 333.571 5.887,333.327 5.917,333.625 5.954 M329.792 6.121 C 330.090 6.158,330.577 6.158,330.875 6.121 C 331.173 6.084,330.929 6.053,330.333 6.053 C 329.737 6.053,329.494 6.084,329.792 6.121 M325.796 6.289 C 326.188 6.324,326.788 6.324,327.129 6.288 C 327.471 6.252,327.150 6.223,326.417 6.224 C 325.683 6.224,325.404 6.254,325.796 6.289 M322.463 6.456 C 322.855 6.491,323.455 6.490,323.796 6.454 C 324.137 6.419,323.817 6.390,323.083 6.390 C 322.350 6.391,322.071 6.420,322.463 6.456 M319.208 6.621 C 319.552 6.657,320.115 6.657,320.458 6.621 C 320.802 6.585,320.521 6.556,319.833 6.556 C 319.146 6.556,318.865 6.585,319.208 6.621 M316.042 6.788 C 316.385 6.824,316.948 6.824,317.292 6.788 C 317.635 6.752,317.354 6.723,316.667 6.723 C 315.979 6.723,315.698 6.752,316.042 6.788 M312.713 6.956 C 313.152 6.990,313.827 6.990,314.213 6.955 C 314.600 6.920,314.242 6.892,313.417 6.892 C 312.592 6.893,312.275 6.922,312.713 6.956 M309.708 7.121 C 310.052 7.157,310.615 7.157,310.958 7.121 C 311.302 7.085,311.021 7.056,310.333 7.056 C 309.646 7.056,309.365 7.085,309.708 7.121 M306.955 7.287 C 307.250 7.324,307.775 7.324,308.121 7.288 C 308.467 7.252,308.225 7.222,307.583 7.221 C 306.942 7.221,306.659 7.250,306.955 7.287 M304.292 7.454 C 304.590 7.491,305.077 7.491,305.375 7.454 C 305.673 7.417,305.429 7.387,304.833 7.387 C 304.237 7.387,303.994 7.417,304.292 7.454 M301.625 7.621 C 301.923 7.658,302.410 7.658,302.708 7.621 C 303.006 7.584,302.762 7.553,302.167 7.553 C 301.571 7.553,301.327 7.584,301.625 7.621 M299.128 7.787 C 299.428 7.825,299.878 7.824,300.128 7.786 C 300.378 7.748,300.133 7.717,299.583 7.718 C 299.033 7.719,298.828 7.750,299.128 7.787 M296.544 7.953 C 296.797 7.991,297.172 7.990,297.377 7.951 C 297.582 7.911,297.375 7.880,296.917 7.881 C 296.458 7.882,296.291 7.915,296.544 7.953 M293.958 8.118 C 294.165 8.157,294.502 8.157,294.708 8.118 C 294.915 8.078,294.746 8.045,294.333 8.045 C 293.921 8.045,293.752 8.078,293.958 8.118 M291.544 8.286 C 291.797 8.325,292.172 8.324,292.377 8.284 C 292.582 8.244,292.375 8.213,291.917 8.214 C 291.458 8.216,291.291 8.248,291.544 8.286 M289.044 8.453 C 289.297 8.491,289.672 8.490,289.877 8.451 C 290.082 8.411,289.875 8.380,289.417 8.381 C 288.958 8.382,288.791 8.415,289.044 8.453 M286.960 8.618 C 287.168 8.658,287.468 8.656,287.627 8.615 C 287.786 8.573,287.617 8.540,287.250 8.542 C 286.883 8.544,286.753 8.578,286.960 8.618 M284.460 8.785 C 284.668 8.824,284.968 8.823,285.127 8.781 C 285.286 8.739,285.117 8.707,284.750 8.709 C 284.383 8.711,284.253 8.745,284.460 8.785 M282.294 8.951 C 282.501 8.991,282.801 8.990,282.960 8.948 C 283.120 8.906,282.950 8.874,282.583 8.875 C 282.217 8.877,282.086 8.911,282.294 8.951 M280.042 9.115 C 280.202 9.157,280.465 9.157,280.625 9.115 C 280.785 9.073,280.654 9.039,280.333 9.039 C 280.012 9.039,279.881 9.073,280.042 9.115 M277.875 9.282 C 278.035 9.323,278.298 9.323,278.458 9.282 C 278.619 9.240,278.487 9.205,278.167 9.205 C 277.846 9.205,277.715 9.240,277.875 9.282 M275.708 9.448 C 275.869 9.490,276.131 9.490,276.292 9.448 C 276.452 9.406,276.321 9.372,276.000 9.372 C 275.679 9.372,275.548 9.406,275.708 9.448 M273.542 9.615 C 273.702 9.657,273.965 9.657,274.125 9.615 C 274.285 9.573,274.154 9.539,273.833 9.539 C 273.512 9.539,273.381 9.573,273.542 9.615 M271.542 9.782 C 271.702 9.823,271.965 9.823,272.125 9.782 C 272.285 9.740,272.154 9.705,271.833 9.705 C 271.512 9.705,271.381 9.740,271.542 9.782 M255.460 11.118 C 255.668 11.158,255.968 11.156,256.127 11.115 C 256.286 11.073,256.117 11.040,255.750 11.042 C 255.383 11.044,255.253 11.078,255.460 11.118 M253.377 11.286 C 253.631 11.325,254.006 11.324,254.211 11.284 C 254.416 11.244,254.208 11.213,253.750 11.214 C 253.292 11.216,253.124 11.248,253.377 11.286 M251.544 11.453 C 251.797 11.491,252.172 11.490,252.377 11.451 C 252.582 11.411,252.375 11.380,251.917 11.381 C 251.458 11.382,251.291 11.415,251.544 11.453 M249.544 11.620 C 249.797 11.658,250.172 11.657,250.377 11.617 C 250.582 11.578,250.375 11.546,249.917 11.548 C 249.458 11.549,249.291 11.581,249.544 11.620 M247.711 11.786 C 247.964 11.825,248.339 11.824,248.544 11.784 C 248.749 11.744,248.542 11.713,248.083 11.714 C 247.625 11.716,247.457 11.748,247.711 11.786 M245.877 11.953 C 246.131 11.991,246.506 11.990,246.711 11.951 C 246.916 11.911,246.708 11.880,246.250 11.881 C 245.792 11.882,245.624 11.915,245.877 11.953 M244.044 12.120 C 244.297 12.158,244.672 12.157,244.877 12.117 C 245.082 12.078,244.875 12.046,244.417 12.048 C 243.958 12.049,243.791 12.081,244.044 12.120 M242.211 12.286 C 242.464 12.325,242.839 12.324,243.044 12.284 C 243.249 12.244,243.042 12.213,242.583 12.214 C 242.125 12.216,241.957 12.248,242.211 12.286 M240.458 12.451 C 240.665 12.491,241.002 12.491,241.208 12.451 C 241.415 12.411,241.246 12.379,240.833 12.379 C 240.421 12.379,240.252 12.411,240.458 12.451 M238.625 12.618 C 238.831 12.657,239.169 12.657,239.375 12.618 C 239.581 12.578,239.412 12.545,239.000 12.545 C 238.588 12.545,238.419 12.578,238.625 12.618 M236.958 12.784 C 237.165 12.824,237.502 12.824,237.708 12.784 C 237.915 12.745,237.746 12.712,237.333 12.712 C 236.921 12.712,236.752 12.745,236.958 12.784 M235.127 12.951 C 235.334 12.991,235.634 12.990,235.794 12.948 C 235.953 12.906,235.783 12.874,235.417 12.875 C 235.050 12.877,234.920 12.911,235.127 12.951 M233.460 13.118 C 233.668 13.158,233.968 13.156,234.127 13.115 C 234.286 13.073,234.117 13.040,233.750 13.042 C 233.383 13.044,233.253 13.078,233.460 13.118 M231.708 13.282 C 231.869 13.323,232.131 13.323,232.292 13.282 C 232.452 13.240,232.321 13.205,232.000 13.205 C 231.679 13.205,231.548 13.240,231.708 13.282 M230.042 13.448 C 230.202 13.490,230.465 13.490,230.625 13.448 C 230.785 13.406,230.654 13.372,230.333 13.372 C 230.012 13.372,229.881 13.406,230.042 13.448 M228.375 13.615 C 228.535 13.657,228.798 13.657,228.958 13.615 C 229.119 13.573,228.987 13.539,228.667 13.539 C 228.346 13.539,228.215 13.573,228.375 13.615 M204.375 16.115 C 204.535 16.157,204.798 16.157,204.958 16.115 C 205.119 16.073,204.987 16.039,204.667 16.039 C 204.346 16.039,204.215 16.073,204.375 16.115 M202.708 16.282 C 202.869 16.323,203.131 16.323,203.292 16.282 C 203.452 16.240,203.321 16.205,203.000 16.205 C 202.679 16.205,202.548 16.240,202.708 16.282 M201.294 16.451 C 201.501 16.491,201.801 16.490,201.960 16.448 C 202.120 16.406,201.950 16.374,201.583 16.375 C 201.217 16.377,201.086 16.411,201.294 16.451 M199.627 16.618 C 199.834 16.658,200.134 16.656,200.294 16.615 C 200.453 16.573,200.283 16.540,199.917 16.542 C 199.550 16.544,199.420 16.578,199.627 16.618 M198.127 16.785 C 198.334 16.824,198.634 16.823,198.794 16.781 C 198.953 16.739,198.783 16.707,198.417 16.709 C 198.050 16.711,197.920 16.745,198.127 16.785 M196.627 16.951 C 196.834 16.991,197.134 16.990,197.294 16.948 C 197.453 16.906,197.283 16.874,196.917 16.875 C 196.550 16.877,196.420 16.911,196.627 16.951 M195.127 17.118 C 195.334 17.158,195.634 17.156,195.794 17.115 C 195.953 17.073,195.783 17.040,195.417 17.042 C 195.050 17.044,194.920 17.078,195.127 17.118 M193.627 17.285 C 193.834 17.324,194.134 17.323,194.294 17.281 C 194.453 17.239,194.283 17.207,193.917 17.209 C 193.550 17.211,193.420 17.245,193.627 17.285 M192.127 17.451 C 192.334 17.491,192.634 17.490,192.794 17.448 C 192.953 17.406,192.783 17.374,192.417 17.375 C 192.050 17.377,191.920 17.411,192.127 17.451 M190.627 17.618 C 190.834 17.658,191.134 17.656,191.294 17.615 C 191.453 17.573,191.283 17.540,190.917 17.542 C 190.550 17.544,190.420 17.578,190.627 17.618 M189.208 17.782 C 189.369 17.823,189.631 17.823,189.792 17.782 C 189.952 17.740,189.821 17.705,189.500 17.705 C 189.179 17.705,189.048 17.740,189.208 17.782 M187.708 17.948 C 187.869 17.990,188.131 17.990,188.292 17.948 C 188.452 17.906,188.321 17.872,188.000 17.872 C 187.679 17.872,187.548 17.906,187.708 17.948 M186.208 18.115 C 186.369 18.157,186.631 18.157,186.792 18.115 C 186.952 18.073,186.821 18.039,186.500 18.039 C 186.179 18.039,186.048 18.073,186.208 18.115 M159.875 21.282 C 160.035 21.323,160.298 21.323,160.458 21.282 C 160.619 21.240,160.487 21.205,160.167 21.205 C 159.846 21.205,159.715 21.240,159.875 21.282 M158.460 21.451 C 158.668 21.491,158.968 21.490,159.127 21.448 C 159.286 21.406,159.117 21.374,158.750 21.375 C 158.383 21.377,158.253 21.411,158.460 21.451 M157.127 21.618 C 157.334 21.658,157.634 21.656,157.794 21.615 C 157.953 21.573,157.783 21.540,157.417 21.542 C 157.050 21.544,156.920 21.578,157.127 21.618 M155.708 21.782 C 155.869 21.823,156.131 21.823,156.292 21.782 C 156.452 21.740,156.321 21.705,156.000 21.705 C 155.679 21.705,155.548 21.740,155.708 21.782 M154.375 21.948 C 154.535 21.990,154.798 21.990,154.958 21.948 C 155.119 21.906,154.987 21.872,154.667 21.872 C 154.346 21.872,154.215 21.906,154.375 21.948 M153.127 22.118 C 153.334 22.158,153.634 22.156,153.794 22.115 C 153.953 22.073,153.783 22.040,153.417 22.042 C 153.050 22.044,152.920 22.078,153.127 22.118 M151.794 22.285 C 152.001 22.324,152.301 22.323,152.460 22.281 C 152.620 22.239,152.450 22.207,152.083 22.209 C 151.717 22.211,151.586 22.245,151.794 22.285 M150.375 22.448 C 150.535 22.490,150.798 22.490,150.958 22.448 C 151.119 22.406,150.987 22.372,150.667 22.372 C 150.346 22.372,150.215 22.406,150.375 22.448 M149.042 22.615 C 149.202 22.657,149.465 22.657,149.625 22.615 C 149.785 22.573,149.654 22.539,149.333 22.539 C 149.012 22.539,148.881 22.573,149.042 22.615 M117.708 26.782 C 117.869 26.823,118.131 26.823,118.292 26.782 C 118.452 26.740,118.321 26.705,118.000 26.705 C 117.679 26.705,117.548 26.740,117.708 26.782 M116.375 26.948 C 116.535 26.990,116.798 26.990,116.958 26.948 C 117.119 26.906,116.987 26.872,116.667 26.872 C 116.346 26.872,116.215 26.906,116.375 26.948 M115.208 27.115 C 115.369 27.157,115.631 27.157,115.792 27.115 C 115.952 27.073,115.821 27.039,115.500 27.039 C 115.179 27.039,115.048 27.073,115.208 27.115 M113.083 27.333 C 112.522 27.434,112.496 27.454,112.917 27.464 C 113.192 27.470,113.754 27.415,114.167 27.342 C 114.840 27.222,114.857 27.209,114.333 27.211 C 114.013 27.213,113.450 27.268,113.083 27.333 M111.542 27.615 C 111.702 27.657,111.965 27.657,112.125 27.615 C 112.285 27.573,112.154 27.539,111.833 27.539 C 111.513 27.539,111.381 27.573,111.542 27.615 M110.375 27.782 C 110.535 27.823,110.798 27.823,110.958 27.782 C 111.119 27.740,110.987 27.705,110.667 27.705 C 110.346 27.705,110.215 27.740,110.375 27.782 M84.708 31.448 C 84.869 31.490,85.131 31.490,85.292 31.448 C 85.452 31.406,85.321 31.372,85.000 31.372 C 84.679 31.372,84.548 31.406,84.708 31.448 M83.542 31.615 C 83.702 31.657,83.965 31.657,84.125 31.615 C 84.285 31.573,84.154 31.539,83.833 31.539 C 83.512 31.539,83.381 31.573,83.542 31.615 M82.375 31.782 C 82.535 31.823,82.798 31.823,82.958 31.782 C 83.119 31.740,82.987 31.705,82.667 31.705 C 82.346 31.705,82.215 31.740,82.375 31.782 M80.127 32.118 C 80.334 32.158,80.634 32.156,80.794 32.115 C 80.953 32.073,80.783 32.040,80.417 32.042 C 80.050 32.044,79.920 32.078,80.127 32.118 M77.875 32.448 C 78.035 32.490,78.298 32.490,78.458 32.448 C 78.619 32.406,78.487 32.372,78.167 32.372 C 77.846 32.372,77.715 32.406,77.875 32.448 M76.000 32.667 C 75.557 32.760,75.517 32.792,75.833 32.802 C 76.063 32.809,76.550 32.752,76.917 32.676 C 77.472 32.561,77.500 32.539,77.083 32.541 C 76.808 32.543,76.321 32.599,76.000 32.667 M74.542 32.948 C 74.702 32.990,74.965 32.990,75.125 32.948 C 75.285 32.906,75.154 32.872,74.833 32.872 C 74.512 32.872,74.381 32.906,74.542 32.948 M73.375 33.115 C 73.535 33.157,73.798 33.157,73.958 33.115 C 74.119 33.073,73.987 33.039,73.667 33.039 C 73.346 33.039,73.215 33.073,73.375 33.115 M50.542 36.615 C 50.702 36.657,50.965 36.657,51.125 36.615 C 51.285 36.573,51.154 36.539,50.833 36.539 C 50.512 36.539,50.381 36.573,50.542 36.615 M47.667 37.000 C 47.224 37.093,47.184 37.126,47.500 37.135 C 47.729 37.142,48.217 37.085,48.583 37.010 C 49.139 36.895,49.167 36.872,48.750 36.874 C 48.475 36.876,47.987 36.932,47.667 37.000 M45.000 37.417 C 44.404 37.532,44.104 37.631,44.333 37.636 C 44.563 37.642,45.275 37.547,45.917 37.425 C 46.558 37.304,46.858 37.205,46.583 37.206 C 46.308 37.207,45.596 37.302,45.000 37.417 M42.333 37.833 C 41.891 37.926,41.851 37.959,42.167 37.968 C 42.396 37.975,42.883 37.919,43.250 37.843 C 43.806 37.728,43.833 37.705,43.417 37.708 C 43.142 37.709,42.654 37.766,42.333 37.833 M13.667 42.500 C 11.146 42.938,9.271 43.301,9.500 43.305 C 9.729 43.309,12.017 42.950,14.583 42.507 C 17.150 42.064,19.025 41.702,18.750 41.702 C 18.475 41.703,16.188 42.062,13.667 42.500 " stroke="none" fill="#33667e" fill-rule="evenodd"></path></g></svg>