<svg id="svg" version="1.1" xmlns="http://www.w3.org/2000/svg" xmlns:xlink="http://www.w3.org/1999/xlink" width="400" height="349.07677356656944" viewBox="0, 0, 400,349.07677356656944"><g id="svgg"><path id="path0" d="M53.891 34.847 C 54.045 37.105,54.409 40.524,54.700 42.445 C 54.991 44.367,55.530 48.454,55.899 51.528 C 56.961 60.387,57.571 64.336,58.140 66.026 C 58.709 67.715,58.807 68.204,59.440 72.489 C 59.667 74.026,59.974 75.445,60.122 75.642 C 60.270 75.839,60.501 76.861,60.634 77.913 C 60.767 78.965,61.162 80.468,61.513 81.253 C 61.863 82.039,62.232 83.139,62.333 83.699 C 62.797 86.267,62.967 86.945,63.636 88.908 C 64.029 90.061,64.438 91.240,64.545 91.528 C 64.652 91.817,64.711 92.234,64.676 92.456 C 64.642 92.678,64.916 93.385,65.287 94.028 C 65.657 94.671,66.068 95.868,66.200 96.688 C 66.331 97.509,66.661 98.401,66.931 98.672 C 67.202 98.943,67.424 99.416,67.424 99.724 C 67.424 100.032,67.684 100.869,68.002 101.583 C 68.319 102.298,68.555 103.000,68.526 103.144 C 68.496 103.288,68.629 103.406,68.821 103.406 C 69.013 103.406,69.170 103.602,69.170 103.842 C 69.170 104.552,74.865 115.758,75.538 116.373 C 75.879 116.684,76.157 117.059,76.157 117.208 C 76.157 117.729,77.682 120.524,77.966 120.524 C 78.124 120.524,78.258 120.721,78.263 120.961 C 78.268 121.201,78.740 122.015,79.311 122.770 C 79.882 123.524,80.349 124.350,80.349 124.604 C 80.349 124.858,80.510 125.066,80.707 125.066 C 80.904 125.066,81.202 125.419,81.369 125.852 C 81.621 126.507,82.719 128.073,84.129 129.791 C 84.290 129.988,84.724 130.609,85.093 131.171 C 85.461 131.733,86.116 132.548,86.549 132.980 C 86.982 133.413,87.336 133.933,87.336 134.136 C 87.336 134.492,87.869 135.164,90.513 138.147 C 91.204 138.926,92.069 139.942,92.435 140.404 C 92.801 140.867,93.611 141.829,94.236 142.543 C 96.317 144.921,96.106 144.987,91.374 143.437 C 89.373 142.781,86.860 142.049,85.789 141.809 C 84.719 141.570,83.843 141.259,83.843 141.119 C 83.843 140.980,83.135 140.759,82.271 140.630 C 81.406 140.500,80.699 140.246,80.699 140.066 C 80.699 139.886,80.306 139.738,79.825 139.738 C 79.345 139.738,78.952 139.598,78.952 139.428 C 78.952 139.257,78.395 139.013,77.715 138.885 C 77.035 138.757,75.764 138.347,74.891 137.973 C 74.019 137.599,73.022 137.293,72.678 137.293 C 72.333 137.293,71.854 137.055,71.613 136.765 C 71.372 136.475,70.299 135.983,69.229 135.672 C 68.159 135.361,67.068 134.891,66.804 134.627 C 66.541 134.364,66.014 134.148,65.633 134.148 C 65.253 134.148,64.363 133.755,63.656 133.275 C 62.949 132.795,62.211 132.396,62.015 132.390 C 61.819 132.383,61.031 132.074,60.262 131.703 C 59.493 131.332,58.668 131.023,58.428 131.016 C 58.188 131.010,57.991 130.838,57.991 130.634 C 57.991 130.431,57.834 130.362,57.642 130.480 C 57.450 130.599,57.293 130.565,57.293 130.405 C 57.293 130.244,56.587 129.803,55.724 129.423 C 54.861 129.044,54.154 128.628,54.152 128.499 C 54.150 128.371,53.677 128.162,53.100 128.035 C 52.524 127.908,52.052 127.688,52.052 127.545 C 52.052 127.402,51.306 126.917,50.393 126.466 C 49.480 126.015,48.624 125.480,48.491 125.278 C 48.357 125.076,48.144 125.015,48.017 125.142 C 47.890 125.269,47.606 125.222,47.386 125.038 C 45.733 123.652,45.269 123.319,44.996 123.319 C 44.825 123.319,44.304 122.938,43.838 122.473 C 43.373 122.007,42.672 121.525,42.282 121.401 C 41.892 121.277,41.572 121.029,41.572 120.850 C 41.572 120.671,41.398 120.524,41.186 120.524 C 40.973 120.524,40.204 120.052,39.476 119.476 C 38.748 118.900,38.047 118.428,37.918 118.428 C 37.570 118.428,35.154 116.582,34.826 116.065 C 34.670 115.819,34.418 115.695,34.267 115.789 C 34.116 115.882,33.784 115.571,33.531 115.097 C 33.277 114.623,32.853 114.236,32.587 114.236 C 32.322 114.236,31.539 113.686,30.846 113.013 C 30.154 112.341,29.490 111.790,29.372 111.790 C 29.254 111.790,28.217 110.932,27.068 109.882 C 25.919 108.833,24.866 107.968,24.729 107.961 C 24.591 107.954,23.530 106.972,22.371 105.779 C 21.211 104.587,20.262 103.738,20.262 103.894 C 20.262 104.049,19.830 103.670,19.301 103.050 C 18.773 102.431,18.133 101.747,17.879 101.530 C 17.626 101.313,17.158 100.860,16.841 100.524 C 16.524 100.188,16.037 99.913,15.759 99.913 C 15.482 99.913,15.343 99.824,15.452 99.715 C 15.715 99.453,13.873 97.525,13.537 97.712 C 13.393 97.792,13.275 97.720,13.275 97.551 C 13.275 97.382,11.398 95.323,9.104 92.976 C 6.809 90.628,4.451 88.054,3.863 87.254 C 3.276 86.455,2.795 85.916,2.795 86.057 C 2.795 86.197,2.302 85.752,1.700 85.066 C 1.098 84.380,0.531 83.894,0.440 83.985 C 0.207 84.218,1.127 87.686,1.422 87.686 C 1.555 87.686,1.845 88.432,2.066 89.345 C 2.287 90.258,2.687 91.476,2.955 92.052 C 4.139 94.601,4.541 95.700,4.541 96.385 C 4.541 96.788,4.682 97.118,4.853 97.118 C 5.024 97.118,5.263 97.511,5.384 97.991 C 5.504 98.472,5.766 98.865,5.966 98.865 C 6.166 98.865,6.242 99.007,6.134 99.181 C 6.027 99.355,6.242 100.101,6.612 100.840 C 8.072 103.750,9.432 106.927,9.432 107.425 C 9.432 107.712,9.599 107.948,9.802 107.948 C 10.006 107.948,10.085 108.088,9.979 108.260 C 9.873 108.432,10.021 108.663,10.308 108.773 C 10.595 108.884,10.830 109.191,10.830 109.457 C 10.830 109.722,11.223 110.679,11.703 111.582 C 12.183 112.486,12.576 113.429,12.576 113.679 C 12.576 113.929,12.955 114.542,13.417 115.041 C 13.879 115.540,14.442 116.506,14.667 117.188 C 14.892 117.870,15.210 118.428,15.375 118.428 C 15.539 118.428,15.781 118.782,15.912 119.214 C 16.044 119.646,16.526 120.500,16.984 121.112 C 17.442 121.724,17.817 122.310,17.817 122.415 C 17.817 122.861,20.313 126.463,20.622 126.463 C 20.808 126.463,20.928 126.581,20.889 126.725 C 20.794 127.072,21.972 129.271,22.578 129.877 C 22.841 130.140,23.057 130.508,23.057 130.695 C 23.057 131.066,23.594 131.785,24.541 132.679 C 24.878 132.996,25.153 133.455,25.153 133.699 C 25.153 133.943,25.597 134.576,26.139 135.106 C 26.682 135.636,27.619 136.797,28.222 137.686 C 28.825 138.574,29.875 139.874,30.554 140.574 C 31.234 141.274,31.790 141.965,31.790 142.109 C 31.790 142.252,32.503 143.114,33.375 144.024 C 34.246 144.933,34.880 145.677,34.784 145.677 C 34.597 145.677,35.337 146.478,39.222 150.480 C 40.574 151.873,41.823 153.013,41.996 153.013 C 42.170 153.013,42.215 153.170,42.096 153.362 C 41.977 153.555,42.041 153.712,42.238 153.712 C 42.436 153.712,43.124 154.223,43.769 154.847 C 44.413 155.472,46.015 156.926,47.329 158.079 C 48.643 159.231,50.214 160.646,50.820 161.223 C 51.426 161.799,52.365 162.585,52.907 162.969 C 53.449 163.354,54.319 164.061,54.840 164.541 C 56.354 165.938,57.633 166.987,57.822 166.987 C 57.919 166.987,58.428 167.369,58.955 167.835 C 60.534 169.235,61.379 169.928,62.177 170.480 C 62.593 170.769,63.422 171.437,64.019 171.965 C 64.616 172.493,65.209 172.926,65.337 172.926 C 65.465 172.926,65.948 173.250,66.409 173.646 C 66.871 174.042,67.594 174.662,68.016 175.024 C 68.438 175.387,69.263 175.931,69.850 176.235 C 70.437 176.538,70.917 176.940,70.917 177.127 C 70.917 177.314,71.142 177.467,71.416 177.467 C 71.691 177.467,72.123 177.666,72.377 177.909 C 73.683 179.159,75.782 180.592,76.612 180.800 C 77.128 180.929,77.478 181.152,77.389 181.295 C 77.301 181.437,77.656 181.772,78.178 182.038 C 79.274 182.598,79.964 183.031,83.323 185.268 C 84.671 186.165,85.956 186.900,86.179 186.900 C 86.402 186.900,87.028 187.271,87.571 187.725 C 88.611 188.594,92.185 190.393,92.872 190.393 C 93.094 190.393,93.275 190.520,93.275 190.675 C 93.275 190.830,93.943 191.252,94.760 191.612 C 95.576 191.972,96.446 192.467,96.692 192.713 C 96.939 192.959,97.686 193.263,98.352 193.388 C 99.018 193.513,99.563 193.742,99.563 193.898 C 99.563 194.053,100.028 194.282,100.595 194.407 C 101.162 194.531,102.006 194.932,102.470 195.297 C 102.934 195.662,104.081 196.154,105.019 196.390 C 105.957 196.627,106.965 197.017,107.258 197.258 C 107.551 197.499,108.445 197.801,109.245 197.928 C 110.045 198.056,110.984 198.418,111.332 198.733 C 111.680 199.048,112.594 199.490,113.362 199.715 C 118.073 201.097,118.964 201.398,119.068 201.646 C 119.132 201.797,119.555 201.921,120.008 201.921 C 120.461 201.921,120.938 202.092,121.067 202.301 C 121.196 202.510,121.598 202.603,121.960 202.509 C 122.323 202.414,122.707 202.479,122.815 202.653 C 122.923 202.827,123.316 202.969,123.689 202.969 C 124.062 202.969,124.367 203.101,124.367 203.263 C 124.367 203.424,125.502 203.759,126.890 204.007 C 128.278 204.255,129.653 204.579,129.947 204.728 C 130.240 204.876,131.148 205.195,131.965 205.437 C 133.266 205.822,133.945 206.408,133.188 206.492 C 133.044 206.508,132.533 206.574,132.052 206.638 C 131.572 206.703,129.293 206.868,126.987 207.006 C 124.681 207.143,122.638 207.365,122.445 207.498 C 121.382 208.236,92.964 208.149,90.830 207.401 C 90.541 207.300,88.709 207.120,86.758 207.001 C 84.806 206.882,82.920 206.731,82.566 206.666 C 82.211 206.601,80.742 206.356,79.301 206.121 C 77.860 205.887,76.367 205.565,75.983 205.405 C 75.405 205.164,72.714 204.699,71.706 204.666 C 71.560 204.661,71.284 204.528,71.092 204.370 C 70.900 204.212,69.956 203.977,68.996 203.848 C 68.035 203.718,66.541 203.400,65.677 203.141 C 64.812 202.882,63.242 202.495,62.188 202.282 C 61.134 202.068,59.951 201.683,59.559 201.427 C 59.168 201.170,57.987 200.845,56.935 200.703 C 55.883 200.562,54.865 200.324,54.672 200.175 C 54.480 200.025,53.223 199.587,51.878 199.201 C 50.533 198.814,47.624 197.858,45.415 197.075 C 40.818 195.447,40.873 195.458,40.873 196.157 C 40.873 196.445,41.059 196.681,41.286 196.681 C 41.512 196.681,42.680 197.703,43.881 198.952 C 45.082 200.201,46.131 201.223,46.213 201.223 C 46.295 201.223,47.435 202.245,48.748 203.494 C 52.203 206.783,53.788 208.179,54.503 208.562 C 54.850 208.747,55.597 209.334,56.164 209.864 C 58.132 211.709,60.133 213.450,60.284 213.450 C 60.461 213.450,61.478 214.311,62.716 215.510 C 63.192 215.970,63.581 216.239,63.581 216.107 C 63.581 215.975,63.777 216.029,64.017 216.226 C 65.918 217.783,66.694 218.341,66.960 218.341 C 67.130 218.341,67.496 218.655,67.773 219.039 C 68.050 219.424,68.410 219.738,68.572 219.738 C 68.735 219.738,69.383 220.131,70.013 220.611 C 70.642 221.092,71.339 221.485,71.561 221.485 C 71.783 221.485,71.965 221.608,71.965 221.759 C 71.965 221.909,72.476 222.333,73.100 222.700 C 73.725 223.067,74.444 223.572,74.697 223.823 C 74.951 224.074,75.384 224.279,75.658 224.279 C 75.933 224.279,76.157 224.463,76.157 224.687 C 76.157 224.911,76.253 224.999,76.369 224.883 C 76.486 224.766,76.761 224.821,76.980 225.004 C 77.808 225.694,79.882 226.963,80.969 227.444 C 81.589 227.719,82.096 228.037,82.096 228.152 C 82.096 228.267,82.733 228.552,83.512 228.785 C 84.291 229.019,85.011 229.426,85.113 229.692 C 85.215 229.957,85.521 230.089,85.793 229.984 C 86.065 229.880,86.288 229.968,86.288 230.181 C 86.288 230.394,86.511 230.568,86.784 230.568 C 87.056 230.568,88.042 230.951,88.974 231.419 C 91.167 232.520,92.684 233.140,93.013 233.070 C 93.157 233.038,93.275 233.153,93.275 233.324 C 93.275 233.494,93.825 233.737,94.498 233.863 C 95.170 233.990,95.721 234.225,95.721 234.387 C 95.721 234.549,96.310 234.791,97.031 234.924 C 97.751 235.057,99.306 235.625,100.487 236.186 C 101.667 236.746,102.932 237.205,103.299 237.205 C 103.665 237.205,104.114 237.346,104.297 237.518 C 104.479 237.690,105.415 238.009,106.376 238.227 C 108.795 238.776,108.779 238.772,109.170 239.009 C 109.362 239.125,110.188 239.331,111.004 239.466 C 111.821 239.602,112.489 239.855,112.489 240.031 C 112.489 240.206,112.929 240.349,113.467 240.349 C 114.005 240.349,114.595 240.489,114.777 240.660 C 114.960 240.831,115.974 241.141,117.031 241.349 C 120.791 242.091,124.914 243.078,126.463 243.609 C 127.328 243.905,129.293 244.320,130.830 244.530 C 134.543 245.040,134.618 245.053,135.022 245.291 C 135.214 245.403,137.140 245.695,139.301 245.939 C 142.175 246.262,143.231 246.510,143.231 246.859 C 143.231 247.121,143.090 247.336,142.916 247.336 C 142.743 247.336,142.278 247.847,141.882 248.472 C 141.487 249.096,141.039 249.607,140.887 249.607 C 140.736 249.607,140.651 249.725,140.699 249.869 C 140.747 250.013,140.662 250.131,140.511 250.131 C 140.360 250.131,139.520 250.799,138.644 251.616 C 137.768 252.432,136.044 254.008,134.814 255.116 C 133.583 256.225,132.079 257.600,131.471 258.173 C 130.863 258.745,130.269 259.214,130.150 259.214 C 130.032 259.214,129.452 259.764,128.861 260.437 C 128.271 261.109,127.608 261.662,127.387 261.665 C 127.167 261.669,126.236 262.376,125.317 263.237 C 124.399 264.099,123.534 264.808,123.396 264.813 C 123.257 264.818,122.463 265.447,121.629 266.210 C 120.796 266.974,119.956 267.598,119.763 267.598 C 119.569 267.598,118.480 268.306,117.343 269.170 C 116.206 270.035,115.128 270.742,114.948 270.742 C 114.768 270.742,114.460 271.017,114.264 271.354 C 114.068 271.690,113.903 271.856,113.897 271.724 C 113.884 271.429,112.918 271.937,110.393 273.564 C 109.336 274.245,107.764 275.186,106.900 275.655 C 106.035 276.123,105.136 276.664,104.903 276.856 C 104.669 277.048,104.237 277.408,103.942 277.656 C 103.647 277.903,103.406 278.015,103.406 277.903 C 103.406 277.791,102.188 278.361,100.699 279.169 C 97.788 280.748,90.948 284.172,88.384 285.332 C 87.520 285.724,85.240 286.778,83.319 287.674 C 77.865 290.220,75.604 291.167,74.964 291.175 C 74.787 291.177,74.583 291.360,74.509 291.582 C 74.365 292.015,75.572 292.262,79.301 292.564 C 80.550 292.665,82.437 292.820,83.493 292.907 C 84.550 292.995,87.616 293.246,90.306 293.464 C 95.226 293.863,123.296 293.783,125.066 293.365 C 125.546 293.251,128.376 292.969,131.354 292.739 C 134.332 292.508,136.926 292.201,137.118 292.057 C 137.310 291.913,137.976 291.785,138.598 291.773 C 139.220 291.760,139.912 291.637,140.136 291.499 C 140.360 291.360,141.030 291.203,141.625 291.150 C 144.867 290.861,153.691 288.874,156.332 287.839 C 157.156 287.516,159.242 286.823,162.620 285.750 C 163.965 285.323,165.842 284.601,166.790 284.146 C 167.739 283.691,168.765 283.319,169.071 283.319 C 169.376 283.319,169.938 283.101,170.318 282.834 C 170.699 282.567,171.677 282.150,172.492 281.905 C 173.307 281.661,173.974 281.329,173.974 281.167 C 173.974 281.006,174.210 280.873,174.498 280.873 C 174.786 280.873,175.022 280.716,175.022 280.524 C 175.022 280.332,175.311 280.175,175.665 280.175 C 176.406 280.175,180.388 278.266,181.619 277.321 C 182.077 276.969,182.663 276.681,182.921 276.681 C 183.179 276.681,184.935 275.758,186.825 274.630 C 188.714 273.502,190.604 272.469,191.025 272.336 C 191.446 272.202,191.790 271.920,191.790 271.709 C 191.790 271.497,191.886 271.420,192.002 271.536 C 192.119 271.653,192.394 271.597,192.614 271.411 C 192.833 271.225,193.799 270.572,194.760 269.960 C 195.721 269.348,196.622 268.684,196.763 268.485 C 196.904 268.285,197.022 268.244,197.025 268.392 C 197.030 268.636,198.700 267.723,199.127 267.244 C 199.223 267.136,200.282 266.385,201.481 265.576 C 203.588 264.154,204.657 263.342,205.587 262.462 C 205.831 262.231,206.128 262.139,206.247 262.258 C 206.366 262.377,206.463 262.291,206.463 262.067 C 206.463 261.843,206.634 261.659,206.843 261.659 C 207.052 261.659,208.032 260.952,209.021 260.087 C 210.009 259.223,210.937 258.515,211.082 258.515 C 211.571 258.515,212.717 257.345,212.527 257.039 C 212.421 256.866,212.164 256.867,211.934 257.040 C 211.711 257.207,210.546 257.633,209.345 257.985 C 208.144 258.338,207.162 258.732,207.162 258.862 C 207.162 258.991,206.965 259.117,206.725 259.142 C 205.812 259.234,204.185 259.676,204.017 259.877 C 203.750 260.199,199.383 261.660,198.690 261.659 C 198.354 261.659,198.079 261.790,198.079 261.950 C 198.079 262.192,196.692 262.642,194.295 263.177 C 194.040 263.234,193.725 263.427,193.597 263.605 C 193.333 263.971,193.040 264.060,190.568 264.532 C 189.607 264.715,188.664 264.984,188.472 265.130 C 187.967 265.511,184.708 266.373,184.187 266.262 C 183.945 266.210,183.657 266.399,183.549 266.681 C 183.426 267.002,182.443 267.348,180.934 267.603 C 179.604 267.827,178.515 268.128,178.515 268.270 C 178.515 268.413,178.319 268.533,178.079 268.537 C 177.073 268.555,173.416 269.448,173.013 269.775 C 172.773 269.970,172.576 270.026,172.576 269.899 C 172.576 269.773,172.224 269.858,171.794 270.089 C 171.042 270.491,170.204 270.681,162.795 272.129 C 160.969 272.486,159.476 272.806,159.476 272.840 C 159.476 272.874,158.927 272.980,158.256 273.074 C 157.585 273.169,156.956 273.351,156.859 273.479 C 156.761 273.607,156.210 273.742,155.633 273.780 C 155.057 273.817,153.721 274.020,152.664 274.230 C 151.607 274.441,148.620 274.909,146.026 275.271 C 143.432 275.634,140.996 276.001,140.611 276.088 C 140.227 276.175,138.655 276.350,137.118 276.479 C 135.581 276.607,133.891 276.796,133.362 276.899 C 132.792 277.010,132.402 276.933,132.402 276.709 C 132.402 276.502,132.638 276.332,132.926 276.332 C 133.214 276.332,133.450 276.178,133.450 275.989 C 133.450 275.801,133.857 275.544,134.355 275.419 C 134.852 275.295,135.623 274.859,136.068 274.452 C 136.513 274.045,137.638 273.319,138.569 272.838 C 139.500 272.358,140.388 271.769,140.541 271.528 C 140.695 271.288,141.049 271.092,141.327 271.092 C 141.606 271.092,141.834 270.956,141.834 270.791 C 141.834 270.625,142.541 270.115,143.406 269.656 C 144.271 269.197,144.978 268.723,144.978 268.602 C 144.978 268.481,145.489 268.175,146.114 267.923 C 146.738 267.671,147.375 267.259,147.528 267.007 C 147.682 266.756,148.296 266.298,148.893 265.989 C 150.074 265.378,150.254 265.249,151.742 263.951 C 152.292 263.472,153.039 262.985,153.401 262.870 C 153.764 262.755,154.061 262.529,154.061 262.369 C 154.061 262.209,154.572 261.774,155.197 261.403 C 155.821 261.033,157.587 259.720,159.120 258.487 C 162.696 255.611,162.723 255.589,164.309 254.145 C 165.046 253.475,165.802 252.926,165.989 252.926 C 166.176 252.926,166.232 252.769,166.114 252.576 C 165.995 252.384,166.089 252.227,166.322 252.227 C 166.803 252.227,167.953 251.151,174.847 244.251 C 182.205 236.886,185.600 233.362,185.340 233.362 C 185.211 233.362,185.804 232.616,186.657 231.703 C 189.852 228.287,190.739 227.239,190.741 226.875 C 190.742 226.504,187.252 227.009,184.454 227.786 C 183.295 228.108,179.199 228.674,175.688 228.998 C 174.806 229.079,173.633 229.317,173.082 229.526 C 171.914 229.971,158.086 230.623,154.760 230.391 C 153.511 230.304,150.466 230.149,147.993 230.046 C 145.521 229.943,143.322 229.751,143.109 229.618 C 142.656 229.339,141.760 229.165,140.193 229.053 C 139.578 229.009,138.962 228.861,138.824 228.723 C 138.686 228.585,138.099 228.472,137.519 228.472 C 136.939 228.472,135.590 228.248,134.521 227.974 C 132.340 227.415,127.477 226.556,127.074 226.658 C 126.930 226.695,126.812 226.568,126.812 226.376 C 126.812 226.183,126.558 226.026,126.248 226.026 C 125.700 226.026,122.814 225.166,121.397 224.580 C 121.013 224.422,119.991 224.136,119.127 223.946 C 118.262 223.757,116.766 223.309,115.802 222.952 C 114.839 222.596,113.856 222.368,113.619 222.447 C 113.382 222.526,113.188 222.459,113.188 222.298 C 113.188 221.941,111.829 221.365,109.607 220.782 C 108.694 220.542,107.948 220.209,107.948 220.042 C 107.948 219.875,107.555 219.738,107.074 219.738 C 104.657 219.738,106.635 219.196,109.432 219.092 C 111.210 219.026,113.293 218.915,114.061 218.845 C 114.830 218.776,117.266 218.558,119.476 218.362 C 126.726 217.718,134.847 216.576,134.847 216.201 C 134.847 216.055,135.189 216.001,135.607 216.082 C 136.025 216.162,136.569 216.061,136.815 215.857 C 137.061 215.653,137.426 215.587,137.627 215.711 C 137.827 215.835,137.991 215.784,137.991 215.598 C 137.991 215.412,139.131 215.063,140.524 214.823 C 141.917 214.583,143.222 214.261,143.423 214.108 C 143.625 213.955,144.454 213.724,145.265 213.594 C 146.077 213.464,146.826 213.219,146.931 213.049 C 147.037 212.879,147.269 212.830,147.448 212.941 C 147.627 213.051,147.773 212.981,147.773 212.785 C 147.773 212.589,148.579 212.189,149.565 211.897 C 150.550 211.604,151.533 211.231,151.748 211.068 C 151.963 210.905,152.690 210.557,153.362 210.294 C 154.035 210.031,155.379 209.312,156.350 208.697 C 157.320 208.082,158.680 207.342,159.371 207.053 C 160.062 206.765,160.761 206.303,160.925 206.028 C 161.089 205.752,161.979 205.088,162.904 204.551 C 163.829 204.015,164.982 203.243,165.466 202.836 C 167.675 200.979,168.093 200.646,169.239 199.825 C 170.905 198.633,170.682 198.379,167.849 198.242 C 162.164 197.965,153.087 197.117,152.603 196.818 C 152.468 196.735,151.680 196.588,150.851 196.491 C 149.176 196.295,146.483 195.921,145.677 195.771 C 145.389 195.718,144.642 195.579,144.017 195.463 C 143.393 195.347,142.882 195.082,142.882 194.875 C 142.882 194.642,142.481 194.578,141.834 194.707 C 141.243 194.826,140.786 194.769,140.786 194.576 C 140.786 194.389,140.547 194.236,140.255 194.236 C 139.439 194.236,131.782 192.124,130.131 191.443 C 129.492 191.180,128.287 190.715,127.860 190.568 C 127.351 190.392,126.050 189.877,124.023 189.048 C 122.777 188.539,121.676 188.144,121.577 188.171 C 121.478 188.198,120.980 187.923,120.470 187.560 C 119.960 187.197,119.410 186.894,119.247 186.888 C 119.085 186.881,118.323 186.572,117.555 186.201 C 116.786 185.830,115.967 185.521,115.734 185.514 C 115.501 185.508,115.030 185.215,114.686 184.864 C 114.342 184.513,113.511 184.016,112.838 183.759 C 112.166 183.501,111.380 183.100,111.092 182.866 C 110.803 182.632,110.242 182.342,109.843 182.221 C 109.445 182.100,108.806 181.727,108.424 181.393 C 108.042 181.059,107.032 180.415,106.179 179.962 C 104.108 178.862,99.069 175.613,98.923 175.284 C 98.859 175.140,98.665 175.022,98.492 175.022 C 98.154 175.022,92.517 171.277,92.227 170.860 C 92.131 170.722,91.266 170.076,90.306 169.424 C 89.345 168.772,88.245 167.944,87.860 167.583 C 87.476 167.223,86.729 166.701,86.201 166.424 C 85.672 166.147,85.240 165.768,85.240 165.581 C 85.240 165.393,84.999 165.240,84.705 165.240 C 84.411 165.240,84.080 165.004,83.969 164.716 C 83.859 164.428,83.626 164.192,83.453 164.192 C 83.280 164.192,82.707 163.809,82.180 163.341 C 81.654 162.872,80.567 162.047,79.766 161.507 C 78.964 160.966,77.970 160.092,77.557 159.563 C 77.143 159.035,76.638 158.603,76.433 158.603 C 76.228 158.603,75.395 158.013,74.582 157.293 C 73.769 156.572,72.369 155.367,71.470 154.615 C 66.325 150.308,65.839 149.359,69.275 150.331 C 70.466 150.668,71.834 151.001,72.314 151.070 C 72.795 151.140,73.188 151.228,73.188 151.265 C 73.188 151.396,78.107 152.303,82.574 152.997 C 85.047 153.381,87.279 153.869,87.536 154.082 C 87.792 154.294,88.342 154.360,88.758 154.228 C 89.175 154.096,89.851 154.149,90.260 154.347 C 92.436 155.399,106.595 156.327,113.208 155.852 C 124.921 155.011,125.762 154.676,122.713 152.072 C 121.632 151.149,120.501 150.108,120.199 149.760 C 119.898 149.412,118.197 147.621,116.419 145.780 C 114.642 143.938,113.188 142.210,113.188 141.938 C 113.188 141.666,113.031 141.541,112.838 141.659 C 112.646 141.778,112.489 141.730,112.489 141.553 C 112.489 141.376,111.507 140.230,110.306 139.007 C 109.105 137.783,108.176 136.727,108.241 136.660 C 108.307 136.592,107.796 135.908,107.106 135.140 C 106.416 134.371,105.852 133.622,105.852 133.475 C 105.852 133.327,105.148 132.436,104.287 131.494 C 103.427 130.552,102.719 129.624,102.715 129.432 C 102.710 129.240,102.353 128.662,101.921 128.148 C 101.489 127.634,100.821 126.696,100.437 126.065 C 100.052 125.433,99.298 124.203,98.761 123.332 C 98.224 122.460,97.558 121.247,97.282 120.635 C 97.005 120.024,96.604 119.415,96.389 119.283 C 96.174 119.150,95.777 118.510,95.506 117.861 C 95.234 117.212,94.848 116.681,94.647 116.681 C 94.446 116.681,94.372 116.535,94.483 116.356 C 94.593 116.177,94.524 115.932,94.329 115.811 C 94.134 115.691,93.974 115.311,93.974 114.968 C 93.974 114.625,93.674 114.072,93.307 113.740 C 92.940 113.408,92.534 112.716,92.406 112.201 C 92.278 111.687,91.815 110.553,91.378 109.681 C 90.941 108.808,90.391 107.511,90.155 106.798 C 89.920 106.086,89.607 105.502,89.461 105.502 C 89.314 105.502,88.995 104.834,88.753 104.017 C 88.511 103.201,88.014 101.873,87.650 101.067 C 87.285 100.261,86.986 99.397,86.986 99.146 C 86.985 98.895,86.665 98.167,86.275 97.527 C 85.885 96.887,85.341 95.551,85.066 94.558 C 84.254 91.627,83.388 89.266,83.079 89.140 C 82.920 89.076,82.884 88.873,82.997 88.688 C 83.111 88.504,83.003 88.112,82.758 87.816 C 82.512 87.520,82.275 87.016,82.231 86.696 C 82.187 86.376,81.894 85.170,81.579 84.017 C 79.714 77.186,79.613 76.120,80.965 77.471 C 81.395 77.901,81.881 78.253,82.044 78.253 C 82.208 78.253,82.835 78.725,83.438 79.301 C 84.042 79.878,84.772 80.349,85.062 80.349 C 85.352 80.349,85.594 80.467,85.599 80.611 C 85.604 80.755,86.233 81.259,86.996 81.730 C 87.760 82.201,88.384 82.711,88.384 82.865 C 88.384 83.019,88.689 83.144,89.062 83.144 C 89.435 83.144,89.839 83.304,89.959 83.498 C 90.080 83.693,90.780 84.160,91.516 84.535 C 92.251 84.910,93.072 85.419,93.341 85.665 C 94.027 86.295,94.974 86.885,96.594 87.690 C 97.362 88.072,98.620 88.781,99.389 89.265 C 100.157 89.750,101.336 90.398,102.009 90.707 C 103.932 91.589,105.312 92.329,105.502 92.579 C 105.725 92.872,109.936 94.843,111.092 95.194 C 111.572 95.340,112.396 95.679,112.922 95.947 C 113.448 96.214,113.920 96.394,113.970 96.345 C 114.020 96.297,114.450 96.529,114.925 96.862 C 115.400 97.195,116.079 97.467,116.435 97.467 C 116.790 97.467,117.302 97.689,117.573 97.959 C 117.843 98.230,118.736 98.564,119.556 98.701 C 120.377 98.838,121.160 99.127,121.297 99.344 C 121.434 99.561,121.670 99.749,121.821 99.762 C 122.354 99.809,125.249 100.644,125.939 100.950 C 126.323 101.120,127.659 101.494,128.908 101.782 C 130.157 102.069,131.808 102.484,132.576 102.703 C 133.698 103.023,136.612 103.729,138.080 104.037 C 138.225 104.067,138.697 104.177,139.128 104.280 C 139.560 104.383,141.563 104.701,143.581 104.986 C 145.598 105.271,148.192 105.678,149.345 105.890 C 150.498 106.103,152.420 106.308,153.616 106.347 C 154.813 106.386,155.900 106.526,156.033 106.658 C 156.165 106.791,157.513 106.900,159.028 106.900 C 161.702 106.900,161.818 106.935,163.040 108.122 C 163.733 108.795,164.442 109.345,164.616 109.345 C 164.790 109.345,164.850 109.478,164.749 109.641 C 164.648 109.804,165.700 111.121,167.086 112.568 C 169.911 115.516,171.528 117.323,171.528 117.532 C 171.528 117.609,173.022 119.163,174.847 120.985 C 176.672 122.808,178.166 124.471,178.166 124.682 C 178.166 124.893,178.427 125.066,178.746 125.066 C 179.300 125.066,181.659 127.399,181.659 127.948 C 181.659 128.092,181.894 128.210,182.180 128.210 C 182.467 128.210,182.898 128.524,183.138 128.908 C 183.378 129.293,183.769 129.607,184.006 129.607 C 184.244 129.607,184.696 130.000,185.010 130.480 C 185.325 130.961,185.805 131.354,186.077 131.354 C 186.349 131.354,186.657 131.575,186.761 131.846 C 186.865 132.117,187.332 132.434,187.798 132.552 C 188.265 132.669,188.646 132.919,188.646 133.107 C 188.646 133.296,188.887 133.450,189.181 133.450 C 189.476 133.450,189.807 133.686,189.917 133.974 C 190.028 134.262,190.313 134.498,190.552 134.498 C 190.790 134.498,191.347 134.812,191.790 135.197 C 192.233 135.581,192.743 135.895,192.922 135.895 C 193.236 135.895,196.323 137.938,196.681 138.383 C 196.777 138.502,197.671 139.024,198.667 139.543 C 199.663 140.061,200.849 140.857,201.302 141.310 C 201.755 141.763,202.551 142.241,203.072 142.371 C 203.592 142.502,204.017 142.749,204.017 142.920 C 204.017 143.091,204.159 143.231,204.332 143.231 C 204.505 143.231,205.445 143.769,206.421 144.426 C 207.397 145.083,208.827 145.899,209.600 146.240 C 210.372 146.581,211.004 146.986,211.004 147.141 C 211.004 147.297,211.227 147.424,211.499 147.424 C 211.771 147.424,212.047 147.541,212.111 147.686 C 212.261 148.024,216.643 150.219,217.168 150.218 C 217.387 150.218,217.661 150.464,217.777 150.765 C 217.892 151.065,218.145 151.213,218.338 151.093 C 218.532 150.974,218.690 151.027,218.690 151.212 C 218.690 151.614,220.639 152.345,220.931 152.053 C 221.043 151.941,221.135 152.000,221.135 152.186 C 221.135 152.372,221.725 152.732,222.445 152.986 C 223.166 153.240,223.991 153.645,224.279 153.885 C 224.694 154.230,226.756 155.062,227.773 155.294 C 227.869 155.316,228.341 155.505,228.821 155.715 C 230.118 156.280,234.183 157.724,234.585 157.762 C 234.777 157.780,235.406 157.994,235.983 158.237 C 237.220 158.760,242.650 160.151,244.891 160.519 C 245.755 160.661,246.620 160.902,246.812 161.055 C 247.004 161.207,247.633 161.421,248.210 161.529 C 248.786 161.638,250.594 161.972,252.227 162.270 C 253.860 162.569,255.668 162.957,256.245 163.134 C 256.821 163.310,258.236 163.561,259.389 163.693 C 260.541 163.824,261.746 163.978,262.064 164.035 C 262.383 164.093,263.368 164.248,264.252 164.381 C 265.137 164.514,265.930 164.735,266.015 164.873 C 266.101 165.011,267.151 165.160,268.349 165.203 C 269.547 165.246,270.644 165.354,270.787 165.442 C 271.771 166.051,291.125 165.469,291.961 164.806 C 292.198 164.618,292.612 164.547,292.879 164.650 C 293.146 164.752,293.502 164.706,293.669 164.547 C 293.837 164.388,294.760 164.161,295.721 164.044 C 299.446 163.587,300.641 163.387,301.445 163.087 C 301.904 162.916,302.847 162.695,303.541 162.597 C 305.589 162.307,306.841 162.026,307.412 161.728 C 307.949 161.447,308.891 161.084,309.869 160.779 C 311.150 160.380,321.727 160.539,322.151 160.963 C 322.390 161.202,322.947 161.397,323.389 161.397 C 323.831 161.397,324.192 161.545,324.192 161.725 C 324.192 161.906,324.901 162.160,325.768 162.290 C 326.635 162.420,327.432 162.667,327.539 162.840 C 327.646 163.013,328.240 163.366,328.859 163.625 C 329.478 163.883,330.214 164.313,330.494 164.580 C 331.409 165.450,333.570 166.987,333.880 166.987 C 334.046 166.987,334.795 167.616,335.546 168.384 C 336.296 169.153,337.105 169.782,337.343 169.782 C 337.580 169.782,338.438 170.568,339.248 171.528 C 340.058 172.489,340.932 173.275,341.190 173.275 C 341.448 173.275,341.665 173.472,341.671 173.712 C 341.677 173.952,342.374 174.843,343.220 175.692 C 344.065 176.541,345.043 177.796,345.392 178.482 C 345.741 179.167,346.208 179.923,346.430 180.162 C 346.652 180.400,347.044 181.071,347.301 181.652 C 347.559 182.232,347.862 182.707,347.977 182.707 C 348.091 182.707,348.385 183.376,348.630 184.192 C 348.875 185.009,349.230 186.010,349.419 186.417 C 349.953 187.565,349.618 188.384,348.472 188.734 C 347.173 189.131,342.945 191.078,342.707 191.388 C 342.611 191.513,341.000 192.383,339.127 193.321 C 337.254 194.259,335.383 195.320,334.969 195.679 C 334.555 196.038,334.012 196.332,333.763 196.332 C 333.321 196.332,331.728 197.360,328.908 199.466 C 328.140 200.040,327.157 200.666,326.725 200.857 C 326.293 201.049,325.939 201.370,325.939 201.572 C 325.939 201.774,325.546 202.088,325.066 202.271 C 324.585 202.453,324.192 202.790,324.192 203.019 C 324.192 203.248,324.097 203.340,323.980 203.223 C 323.738 202.981,323.376 203.259,321.240 205.328 C 320.396 206.144,319.618 206.812,319.511 206.812 C 319.404 206.812,318.174 208.025,316.776 209.508 C 315.379 210.991,313.803 212.653,313.275 213.203 C 312.747 213.753,312.314 214.312,312.314 214.447 C 312.314 214.582,312.039 214.941,311.703 215.245 C 310.502 216.333,308.946 218.176,308.722 218.777 C 308.596 219.114,308.350 219.389,308.176 219.389 C 308.001 219.389,307.662 219.860,307.424 220.437 C 307.185 221.013,306.851 221.485,306.683 221.485 C 306.514 221.485,306.376 221.686,306.376 221.931 C 306.376 222.177,306.100 222.637,305.764 222.955 C 304.703 223.956,304.249 224.613,303.875 225.684 C 303.676 226.257,303.381 226.725,303.221 226.725 C 302.836 226.725,301.641 228.439,301.332 229.432 C 300.981 230.565,301.526 230.404,303.111 228.908 C 304.784 227.330,306.987 225.551,307.493 225.371 C 307.846 225.245,308.140 225.007,309.978 223.359 C 310.436 222.949,311.148 222.506,311.562 222.375 C 311.976 222.244,312.314 222.000,312.314 221.834 C 312.314 221.668,312.628 221.432,313.011 221.311 C 313.394 221.189,313.905 220.902,314.146 220.674 C 314.388 220.445,315.921 219.394,317.555 218.338 C 319.188 217.283,320.576 216.301,320.640 216.157 C 320.705 216.013,320.980 215.895,321.252 215.895 C 321.524 215.895,321.748 215.777,321.749 215.633 C 321.751 215.489,322.105 215.194,322.535 214.977 C 322.966 214.760,323.977 214.250,324.781 213.844 C 325.586 213.438,326.340 212.949,326.458 212.758 C 326.698 212.371,331.579 209.956,332.122 209.956 C 332.312 209.956,332.753 209.642,333.100 209.258 C 333.448 208.873,333.983 208.554,334.290 208.548 C 334.596 208.542,335.476 208.150,336.245 207.676 C 337.013 207.203,337.917 206.815,338.253 206.814 C 338.590 206.813,338.865 206.655,338.865 206.463 C 338.865 206.271,339.179 206.114,339.563 206.114 C 339.948 206.114,340.262 205.969,340.262 205.792 C 340.262 205.615,340.734 205.367,341.310 205.240 C 341.886 205.114,342.358 204.890,342.358 204.744 C 342.358 204.598,343.254 204.277,344.349 204.032 C 345.445 203.787,346.584 203.464,346.882 203.314 C 348.373 202.561,352.571 201.215,354.585 200.843 C 355.834 200.613,357.015 200.301,357.209 200.151 C 357.403 200.002,358.582 199.766,359.829 199.627 C 361.076 199.489,362.175 199.274,362.271 199.151 C 363.468 197.611,388.888 196.557,397.817 197.677 C 400.223 197.978,400.742 197.461,399.321 196.175 C 398.948 195.837,398.541 195.098,398.417 194.533 C 398.292 193.968,397.816 193.101,397.358 192.607 C 396.899 192.112,396.103 190.980,395.588 190.090 C 395.073 189.200,394.087 187.907,393.396 187.218 C 392.705 186.528,391.331 185.098,390.342 184.040 C 385.387 178.735,380.087 176.078,372.227 174.958 C 370.882 174.766,369.509 174.466,369.175 174.291 C 368.841 174.117,367.398 173.974,365.967 173.974 C 363.434 173.974,363.345 173.944,362.561 172.843 C 362.118 172.221,361.479 171.435,361.140 171.096 C 360.801 170.758,360.524 170.318,360.524 170.119 C 360.524 169.921,360.052 169.297,359.476 168.734 C 358.900 168.170,358.428 167.625,358.428 167.523 C 358.428 167.303,358.199 167.056,353.940 162.694 C 352.144 160.855,350.022 158.906,349.224 158.365 C 348.426 157.823,347.459 157.093,347.074 156.741 C 346.381 156.108,343.927 154.869,341.747 154.052 C 341.122 153.818,340.611 153.514,340.611 153.376 C 340.611 153.237,339.740 152.929,338.675 152.691 C 337.610 152.453,336.324 152.042,335.817 151.779 C 335.310 151.516,334.060 151.197,333.041 151.069 C 332.021 150.942,331.272 150.700,331.376 150.532 C 331.480 150.364,331.321 150.320,331.023 150.434 C 330.724 150.549,330.480 150.501,330.480 150.328 C 330.480 149.946,329.910 149.891,323.561 149.653 C 320.678 149.545,318.387 149.604,318.147 149.793 C 317.917 149.972,317.218 150.079,316.594 150.029 C 315.969 149.979,315.459 150.097,315.459 150.291 C 315.459 150.484,315.223 150.552,314.934 150.441 C 314.646 150.331,314.410 150.364,314.410 150.516 C 314.410 150.667,313.114 150.997,311.528 151.249 C 309.943 151.501,308.489 151.827,308.297 151.972 C 308.105 152.118,306.533 152.426,304.803 152.657 C 303.074 152.889,301.266 153.145,300.786 153.227 C 297.026 153.867,286.851 154.453,286.117 154.071 C 285.827 153.920,283.782 153.694,281.572 153.568 C 279.362 153.443,277.004 153.273,276.332 153.190 C 275.659 153.107,273.537 152.876,271.616 152.676 C 269.694 152.476,267.493 152.164,266.725 151.983 C 265.956 151.802,263.795 151.468,261.921 151.240 C 260.048 151.013,258.515 150.695,258.515 150.534 C 258.515 150.372,258.279 150.331,257.991 150.441 C 257.695 150.555,257.467 150.449,257.467 150.197 C 257.467 149.953,257.384 149.836,257.282 149.937 C 257.050 150.170,251.865 149.046,244.629 147.194 C 244.197 147.083,243.843 146.864,243.843 146.706 C 243.843 146.548,243.135 146.312,242.271 146.183 C 241.406 146.053,240.699 145.821,240.699 145.668 C 240.699 145.514,240.031 145.280,239.214 145.148 C 238.397 145.015,236.764 144.451,235.583 143.895 C 234.403 143.338,233.194 142.882,232.896 142.882 C 232.599 142.882,232.276 142.753,232.179 142.596 C 232.081 142.438,230.854 141.853,229.451 141.296 C 228.048 140.739,226.821 140.191,226.725 140.079 C 226.629 139.966,225.173 139.197,223.490 138.370 C 221.807 137.543,220.347 136.731,220.244 136.566 C 220.142 136.400,219.397 135.955,218.588 135.577 C 216.617 134.655,215.077 133.710,214.768 133.234 C 214.629 133.019,214.039 132.646,213.458 132.405 C 212.877 132.165,212.402 131.849,212.402 131.703 C 212.402 131.558,211.930 131.243,211.354 131.004 C 210.777 130.766,210.306 130.432,210.306 130.263 C 210.306 130.094,210.142 129.956,209.942 129.956 C 209.741 129.956,209.388 129.796,209.156 129.601 C 207.544 128.241,207.019 127.860,206.757 127.860 C 206.466 127.860,199.386 122.363,197.804 120.909 C 197.365 120.505,196.749 120.175,196.436 120.175 C 196.123 120.175,195.959 120.082,196.073 119.968 C 196.316 119.725,193.980 117.380,193.493 117.380 C 193.310 117.380,192.564 116.790,191.835 116.070 C 191.107 115.349,190.052 114.361,189.491 113.874 C 188.930 113.387,188.038 112.483,187.508 111.866 C 186.978 111.248,186.340 110.742,186.091 110.742 C 185.841 110.742,185.174 110.117,184.608 109.353 C 184.043 108.589,183.466 107.960,183.327 107.956 C 183.187 107.951,181.929 106.739,180.532 105.263 C 179.135 103.786,176.459 101.022,174.585 99.120 C 172.712 97.218,171.179 95.610,171.179 95.546 C 171.179 95.483,170.668 94.902,170.044 94.254 C 169.419 93.607,168.437 92.488,167.860 91.766 C 166.821 90.466,162.993 89.375,158.178 89.008 C 157.614 88.965,157.076 88.807,156.983 88.657 C 156.891 88.507,156.274 88.384,155.613 88.384 C 154.930 88.384,154.410 88.208,154.410 87.977 C 154.410 87.753,154.331 87.649,154.233 87.747 C 153.925 88.055,143.092 85.736,141.759 85.076 C 141.237 84.818,140.136 84.495,139.313 84.358 C 138.490 84.221,137.266 83.907,136.594 83.660 C 135.921 83.414,134.310 82.924,133.013 82.571 C 131.716 82.219,130.655 81.793,130.655 81.626 C 130.655 81.459,130.424 81.411,130.142 81.519 C 129.860 81.628,129.549 81.586,129.451 81.427 C 129.353 81.268,128.758 81.017,128.130 80.870 C 127.501 80.722,126.908 80.571,126.812 80.533 C 126.716 80.496,126.195 80.282,125.654 80.058 C 125.113 79.834,124.458 79.651,124.198 79.651 C 123.938 79.651,123.201 79.388,122.561 79.068 C 120.441 78.005,120.188 77.904,119.655 77.904 C 119.365 77.904,119.127 77.737,119.127 77.534 C 119.127 77.330,118.969 77.261,118.777 77.380 C 118.585 77.499,118.428 77.429,118.428 77.226 C 118.428 77.022,118.134 76.856,117.774 76.856 C 117.089 76.856,115.140 76.085,111.616 74.419 C 110.463 73.874,108.734 73.071,107.773 72.634 C 106.812 72.196,105.948 71.746,105.852 71.633 C 105.755 71.520,104.341 70.746,102.707 69.914 C 101.074 69.081,99.581 68.212,99.389 67.983 C 99.197 67.753,98.528 67.357,97.904 67.103 C 97.279 66.848,96.769 66.534,96.769 66.403 C 96.769 66.273,96.218 65.968,95.546 65.724 C 94.873 65.481,94.323 65.131,94.323 64.947 C 94.323 64.762,93.961 64.474,93.519 64.306 C 93.077 64.138,91.937 63.478,90.986 62.840 C 89.093 61.570,89.051 61.539,87.460 60.267 C 86.856 59.784,86.205 59.389,86.013 59.389 C 85.821 59.389,85.574 59.153,85.463 58.865 C 85.353 58.576,85.025 58.341,84.735 58.341 C 84.445 58.341,83.951 57.948,83.636 57.467 C 83.321 56.987,82.908 56.594,82.718 56.594 C 82.527 56.594,81.877 56.198,81.273 55.714 C 80.669 55.230,79.729 54.483,79.184 54.054 C 78.639 53.626,77.892 53.000,77.524 52.664 C 77.157 52.328,76.796 52.052,76.723 52.052 C 76.650 52.052,75.962 51.463,75.193 50.742 C 73.535 49.188,72.270 48.210,71.918 48.210 C 71.777 48.210,71.563 47.895,71.441 47.511 C 71.319 47.127,70.985 46.812,70.698 46.812 C 70.412 46.812,70.274 46.655,70.393 46.463 C 70.512 46.271,70.441 46.114,70.236 46.114 C 70.031 46.114,68.922 45.249,67.773 44.192 C 66.623 43.135,65.515 42.271,65.310 42.271 C 65.105 42.271,65.019 42.137,65.120 41.974 C 65.221 41.811,64.916 41.470,64.442 41.216 C 63.968 40.963,63.581 40.657,63.581 40.536 C 63.581 40.190,54.260 30.742,53.918 30.742 C 53.742 30.742,53.731 32.506,53.891 34.847 " stroke="none" fill="#1c54fc" fill-rule="evenodd"></path><path id="path1" d="M190.393 0.609 C 186.838 0.896,183.852 1.249,183.755 1.395 C 183.659 1.541,181.655 1.866,179.301 2.118 C 176.477 2.420,175.022 2.717,175.022 2.992 C 175.022 3.368,170.935 4.192,169.069 4.192 C 168.692 4.192,168.384 4.327,168.384 4.492 C 168.384 4.657,167.200 4.995,165.753 5.242 C 164.306 5.490,163.039 5.826,162.938 5.990 C 162.836 6.154,162.370 6.288,161.901 6.288 C 161.432 6.288,161.048 6.436,161.048 6.616 C 161.048 6.797,160.339 7.050,159.472 7.180 C 158.605 7.310,157.814 7.549,157.714 7.711 C 157.614 7.872,156.594 8.189,155.447 8.414 C 154.301 8.640,153.362 8.947,153.362 9.098 C 153.362 9.248,152.734 9.477,151.965 9.607 C 151.197 9.737,150.568 9.986,150.568 10.162 C 150.568 10.337,150.253 10.480,149.869 10.480 C 149.485 10.480,149.170 10.612,149.170 10.774 C 149.170 10.935,148.306 11.275,147.249 11.528 C 146.192 11.782,145.328 12.092,145.328 12.217 C 145.328 12.342,144.541 12.646,143.581 12.892 C 142.620 13.138,141.834 13.531,141.834 13.765 C 141.834 13.999,141.048 14.393,140.087 14.639 C 139.127 14.885,138.341 15.209,138.341 15.358 C 138.341 15.507,137.633 15.828,136.769 16.070 C 135.895 16.314,135.197 16.720,135.197 16.984 C 135.197 17.253,134.520 17.628,133.624 17.853 C 132.760 18.071,132.052 18.381,132.052 18.543 C 132.052 18.705,131.424 19.007,130.655 19.214 C 129.856 19.429,129.258 19.803,129.258 20.087 C 129.258 20.372,128.660 20.745,127.860 20.961 C 127.092 21.168,126.463 21.476,126.463 21.646 C 126.463 21.816,125.884 22.146,125.176 22.379 C 124.468 22.613,123.518 23.175,123.064 23.629 C 122.610 24.083,122.010 24.454,121.731 24.454 C 121.451 24.454,121.223 24.594,121.223 24.766 C 121.223 24.937,120.859 25.168,120.414 25.280 C 119.701 25.459,119.197 25.796,117.482 27.242 C 117.250 27.438,116.896 27.598,116.696 27.598 C 116.496 27.598,116.332 27.736,116.332 27.905 C 116.332 28.074,115.860 28.408,115.284 28.646 C 114.707 28.885,114.236 29.184,114.236 29.311 C 114.236 29.437,113.764 29.719,113.188 29.937 C 112.611 30.154,112.140 30.563,112.140 30.844 C 112.140 31.126,111.629 31.566,111.004 31.822 C 110.380 32.079,109.564 32.569,109.192 32.913 C 108.819 33.256,108.308 33.537,108.056 33.537 C 107.804 33.537,107.598 33.781,107.598 34.079 C 107.598 34.378,107.127 34.786,106.550 34.987 C 105.974 35.188,105.502 35.497,105.502 35.675 C 105.502 35.852,105.109 36.177,104.629 36.395 C 104.148 36.614,103.755 37.004,103.755 37.261 C 103.755 37.519,103.606 37.729,103.424 37.729 C 103.242 37.729,102.702 38.083,102.224 38.515 C 101.269 39.380,99.686 40.747,97.471 42.620 C 96.676 43.293,95.839 44.050,95.611 44.304 C 94.516 45.522,92.540 47.162,92.165 47.162 C 91.997 47.162,91.711 47.555,91.528 48.035 C 91.346 48.515,91.041 48.908,90.851 48.908 C 90.306 48.908,89.721 50.264,89.952 50.992 C 90.168 51.670,91.747 52.769,94.061 53.851 C 94.782 54.188,95.371 54.618,95.371 54.807 C 95.371 54.995,95.667 55.243,96.028 55.358 C 96.390 55.473,97.043 55.876,97.479 56.255 C 98.916 57.501,101.663 56.465,102.465 54.374 C 102.590 54.049,102.970 53.679,103.311 53.551 C 103.651 53.423,104.575 52.641,105.362 51.812 C 106.150 50.984,106.975 50.306,107.196 50.306 C 107.417 50.306,107.598 50.145,107.598 49.949 C 107.598 49.753,107.988 49.414,108.465 49.197 C 108.942 48.980,109.424 48.512,109.536 48.157 C 109.649 47.801,109.906 47.511,110.106 47.511 C 110.307 47.511,111.222 46.882,112.140 46.114 C 113.058 45.345,113.893 44.716,113.995 44.716 C 114.098 44.716,114.648 44.284,115.218 43.755 C 116.671 42.408,117.307 41.922,117.627 41.915 C 117.779 41.912,118.294 41.498,118.771 40.995 C 119.249 40.493,120.074 39.930,120.606 39.745 C 121.137 39.559,121.572 39.285,121.572 39.135 C 121.572 38.985,122.044 38.667,122.620 38.428 C 123.197 38.189,123.670 37.816,123.672 37.600 C 123.674 37.383,124.263 36.926,124.982 36.584 C 127.623 35.329,128.908 34.572,128.908 34.271 C 128.908 34.101,129.498 33.700,130.218 33.380 C 132.252 32.475,133.533 31.740,134.268 31.055 C 134.638 30.710,135.392 30.329,135.942 30.208 C 136.493 30.087,136.943 29.854,136.943 29.690 C 136.943 29.526,137.297 29.287,137.729 29.158 C 138.605 28.896,141.562 27.522,141.834 27.249 C 142.291 26.792,144.222 25.907,145.240 25.689 C 145.865 25.556,146.376 25.314,146.376 25.153 C 146.376 24.991,146.886 24.748,147.511 24.613 C 148.135 24.477,148.725 24.268,148.821 24.148 C 149.196 23.680,151.233 22.707,151.844 22.705 C 152.199 22.704,152.902 22.488,153.406 22.225 C 153.910 21.962,155.128 21.540,156.113 21.288 C 157.098 21.035,157.904 20.648,157.904 20.427 C 157.904 20.206,159.004 19.817,160.349 19.563 C 161.694 19.310,162.795 18.981,162.795 18.834 C 162.795 18.687,163.974 18.376,165.415 18.143 C 166.971 17.892,168.035 17.552,168.035 17.305 C 168.035 16.912,171.577 16.070,173.228 16.070 C 173.638 16.070,173.974 15.938,173.974 15.777 C 173.974 15.616,175.585 15.279,177.555 15.027 C 179.524 14.776,181.285 14.436,181.467 14.272 C 181.650 14.108,182.383 13.974,183.098 13.974 C 183.812 13.974,184.448 13.828,184.512 13.649 C 184.576 13.471,186.201 13.213,188.122 13.076 C 190.044 12.939,191.695 12.705,191.792 12.557 C 192.449 11.556,227.464 11.556,228.120 12.557 C 228.218 12.705,229.869 12.939,231.790 13.076 C 233.712 13.213,235.336 13.471,235.400 13.649 C 235.464 13.828,236.101 13.974,236.815 13.974 C 237.529 13.974,238.263 14.105,238.445 14.265 C 238.628 14.425,240.271 14.756,242.096 15.000 C 243.921 15.245,245.572 15.572,245.764 15.726 C 245.956 15.881,247.410 16.197,248.996 16.428 C 250.900 16.706,251.878 17.002,251.878 17.300 C 251.878 17.580,252.572 17.843,253.712 17.994 C 254.721 18.128,256.017 18.443,256.594 18.695 C 257.170 18.947,258.468 19.340,259.478 19.568 C 260.489 19.797,261.432 20.174,261.575 20.406 C 261.717 20.638,262.738 21.040,263.843 21.300 C 264.948 21.559,265.852 21.870,265.852 21.992 C 265.852 22.114,266.598 22.410,267.511 22.651 C 269.588 23.199,271.092 23.845,271.092 24.190 C 271.092 24.335,271.371 24.454,271.713 24.454 C 272.054 24.454,272.648 24.675,273.033 24.944 C 273.417 25.213,274.363 25.604,275.134 25.811 C 275.906 26.019,276.877 26.506,277.293 26.894 C 277.709 27.281,278.174 27.603,278.326 27.609 C 278.478 27.615,279.389 28.007,280.349 28.479 C 281.310 28.952,282.293 29.340,282.533 29.342 C 282.773 29.344,282.969 29.485,282.969 29.656 C 282.969 29.828,283.362 30.067,283.843 30.187 C 284.323 30.308,284.716 30.561,284.716 30.749 C 284.716 30.937,284.952 31.092,285.240 31.092 C 285.528 31.092,285.764 31.236,285.764 31.413 C 285.764 31.590,286.225 31.836,286.788 31.960 C 287.351 32.083,287.993 32.402,288.213 32.668 C 288.434 32.934,289.152 33.329,289.810 33.546 C 290.467 33.763,291.004 34.147,291.004 34.400 C 291.004 34.652,291.393 34.956,291.869 35.076 C 292.344 35.195,293.309 35.684,294.013 36.162 C 294.718 36.640,295.429 37.031,295.595 37.031 C 295.760 37.031,295.895 37.249,295.895 37.517 C 295.895 37.784,296.259 38.094,296.704 38.206 C 297.149 38.318,297.881 38.728,298.330 39.117 C 298.779 39.507,299.338 39.825,299.572 39.825 C 299.805 39.825,300.607 40.454,301.352 41.222 C 302.098 41.991,302.916 42.620,303.171 42.620 C 303.426 42.620,304.114 43.100,304.700 43.686 C 305.286 44.272,306.314 45.124,306.983 45.578 C 308.135 46.362,310.011 47.898,312.433 50.044 C 313.030 50.572,313.640 51.004,313.790 51.004 C 313.939 51.004,314.061 51.240,314.061 51.528 C 314.061 51.817,314.218 52.052,314.410 52.052 C 314.603 52.052,315.062 52.355,315.432 52.725 C 315.802 53.094,316.431 53.572,316.829 53.785 C 317.228 53.998,317.555 54.330,317.555 54.521 C 317.555 54.712,318.133 55.375,318.841 55.993 C 320.610 57.540,323.480 60.555,323.487 60.873 C 323.491 61.017,323.729 61.135,324.017 61.135 C 324.306 61.135,324.541 61.308,324.541 61.520 C 324.541 61.731,325.250 62.635,326.116 63.529 C 328.704 66.199,330.480 68.250,330.480 68.568 C 330.480 68.732,330.948 69.259,331.519 69.740 C 332.090 70.221,332.905 71.233,333.330 71.988 C 333.755 72.744,334.226 73.362,334.376 73.362 C 334.527 73.362,335.301 74.345,336.096 75.546 C 336.891 76.747,337.761 77.855,338.029 78.009 C 338.296 78.162,338.515 78.492,338.515 78.741 C 338.515 78.989,338.830 79.478,339.214 79.825 C 339.598 80.173,339.913 80.669,339.913 80.928 C 339.913 81.186,340.070 81.397,340.262 81.397 C 340.454 81.397,340.611 81.635,340.611 81.925 C 340.611 82.215,340.926 82.721,341.310 83.050 C 341.694 83.380,342.009 83.833,342.009 84.058 C 342.009 84.283,342.245 84.557,342.533 84.668 C 342.821 84.778,343.057 85.176,343.057 85.552 C 343.057 85.927,343.528 86.706,344.105 87.282 C 344.681 87.859,345.153 88.557,345.153 88.834 C 345.153 89.111,345.446 89.713,345.803 90.171 C 346.161 90.629,346.573 91.384,346.719 91.848 C 346.864 92.312,347.343 93.052,347.784 93.492 C 348.224 93.933,348.689 94.769,348.817 95.352 C 348.945 95.935,349.194 96.501,349.371 96.610 C 349.547 96.719,350.026 97.585,350.435 98.535 C 350.843 99.485,351.298 100.262,351.446 100.262 C 351.593 100.262,351.922 100.969,352.177 101.834 C 352.433 102.699,352.747 103.406,352.876 103.406 C 353.005 103.406,353.320 104.114,353.575 104.978 C 353.830 105.843,354.162 106.550,354.312 106.550 C 354.462 106.550,354.585 106.786,354.585 107.074 C 354.585 107.362,354.727 107.598,354.900 107.598 C 355.073 107.598,355.403 108.384,355.633 109.345 C 355.864 110.306,356.183 111.092,356.342 111.092 C 356.501 111.092,356.806 111.934,357.020 112.963 C 357.234 113.992,357.680 115.131,358.012 115.495 C 358.344 115.859,358.829 117.022,359.091 118.079 C 359.352 119.135,359.688 120.157,359.838 120.349 C 359.987 120.541,360.301 121.681,360.537 122.882 C 360.772 124.083,361.101 125.066,361.268 125.066 C 361.435 125.066,361.572 125.380,361.572 125.764 C 361.572 126.148,361.715 126.463,361.889 126.463 C 362.063 126.463,362.313 127.249,362.445 128.210 C 362.578 129.170,362.809 129.956,362.959 129.956 C 363.109 129.956,363.520 131.843,363.872 134.148 C 364.223 136.454,364.636 138.341,364.788 138.341 C 364.941 138.341,365.066 138.781,365.066 139.319 C 365.066 139.857,365.222 140.453,365.413 140.644 C 365.604 140.835,365.863 142.006,365.990 143.247 C 366.117 144.487,366.327 145.581,366.457 145.677 C 366.759 145.899,367.477 152.601,367.755 157.784 C 367.872 159.978,368.101 161.855,368.264 161.955 C 368.426 162.055,368.559 162.835,368.559 163.689 L 368.559 165.240 370.638 165.240 C 372.762 165.240,375.866 165.740,377.118 166.284 C 377.502 166.451,378.406 166.684,379.127 166.803 L 380.437 167.019 380.441 165.343 C 380.451 162.006,379.619 151.965,379.333 151.965 C 379.171 151.965,379.039 151.132,379.039 150.114 C 379.039 149.095,378.901 148.113,378.732 147.930 C 378.563 147.748,378.233 145.790,377.998 143.581 C 377.763 141.371,377.452 139.406,377.307 139.214 C 377.163 139.022,376.842 137.410,376.594 135.633 C 376.346 133.856,376.009 132.402,375.845 132.402 C 375.680 132.402,375.546 132.009,375.546 131.528 C 375.546 131.048,375.389 130.655,375.197 130.655 C 375.004 130.655,374.847 130.311,374.847 129.890 C 374.847 128.785,374.039 124.922,373.764 124.716 C 373.636 124.620,373.339 123.609,373.103 122.470 C 372.868 121.331,372.467 120.190,372.213 119.936 C 371.958 119.681,371.481 118.255,371.153 116.767 C 370.824 115.279,370.444 113.983,370.307 113.886 C 370.170 113.790,369.865 112.898,369.629 111.904 C 369.393 110.910,368.999 110.019,368.752 109.924 C 368.505 109.830,368.014 108.678,367.661 107.365 C 367.308 106.052,366.838 104.792,366.615 104.565 C 366.392 104.338,366.108 103.512,365.983 102.731 C 365.850 101.897,365.564 101.310,365.292 101.310 C 365.037 101.310,364.619 100.642,364.364 99.825 C 364.109 99.009,363.630 97.869,363.298 97.293 C 362.967 96.716,362.587 95.734,362.455 95.109 C 362.322 94.480,361.996 93.974,361.724 93.974 C 361.434 93.974,361.073 93.338,360.843 92.426 C 360.628 91.574,360.248 90.799,359.997 90.702 C 359.747 90.606,359.436 90.045,359.306 89.456 C 359.177 88.867,358.926 88.384,358.750 88.384 C 358.573 88.384,358.428 88.216,358.428 88.010 C 358.428 87.804,358.184 87.392,357.887 87.095 C 357.589 86.797,357.255 86.101,357.144 85.547 C 357.034 84.994,356.825 84.541,356.680 84.541 C 356.535 84.541,356.221 84.070,355.983 83.493 C 355.744 82.917,355.432 82.445,355.290 82.445 C 355.148 82.445,354.656 81.738,354.198 80.873 C 353.739 80.009,353.263 79.301,353.139 79.301 C 353.015 79.301,352.822 78.936,352.710 78.489 C 352.598 78.042,352.031 77.179,351.450 76.571 C 350.869 75.962,350.393 75.313,350.393 75.128 C 350.393 74.798,349.236 72.968,348.386 71.953 C 347.216 70.557,345.502 68.078,345.502 67.782 C 345.502 67.598,345.208 67.291,344.849 67.099 C 344.490 66.906,343.940 66.233,343.628 65.602 C 342.918 64.168,341.840 62.882,341.348 62.882 C 341.143 62.882,340.661 62.293,340.277 61.572 C 339.450 60.020,338.357 58.690,337.907 58.690 C 337.730 58.690,337.081 57.913,336.466 56.963 C 335.850 56.013,335.038 55.138,334.660 55.018 C 334.283 54.898,333.974 54.606,333.974 54.368 C 333.974 54.131,333.424 53.403,332.751 52.751 C 332.079 52.099,331.528 51.361,331.528 51.111 C 331.528 50.860,331.332 50.653,331.092 50.651 C 330.549 50.647,328.384 48.455,328.384 47.910 C 328.384 47.691,328.157 47.511,327.880 47.511 C 327.603 47.511,327.170 47.221,326.919 46.868 C 326.668 46.514,326.120 46.042,325.701 45.820 C 325.281 45.598,324.838 45.101,324.716 44.717 C 324.594 44.332,324.323 44.017,324.114 44.017 C 323.905 44.017,323.117 43.389,322.364 42.620 C 321.611 41.852,320.781 41.223,320.521 41.223 C 320.260 41.223,319.947 40.908,319.825 40.524 C 319.703 40.140,319.487 39.825,319.344 39.825 C 319.201 39.825,318.779 39.550,318.406 39.214 C 318.034 38.878,317.297 38.380,316.769 38.107 C 316.240 37.834,315.808 37.459,315.808 37.274 C 315.808 36.815,314.127 35.287,313.606 35.273 C 313.026 35.257,311.965 34.412,311.965 33.965 C 311.965 33.762,311.493 33.387,310.917 33.132 C 310.341 32.877,309.869 32.568,309.869 32.446 C 309.869 32.324,309.397 32.029,308.821 31.790 C 308.245 31.552,307.773 31.155,307.773 30.909 C 307.773 30.663,307.301 30.297,306.725 30.096 C 306.148 29.895,305.677 29.584,305.677 29.406 C 305.677 29.227,305.166 28.870,304.541 28.613 C 303.917 28.356,303.067 27.826,302.653 27.435 C 301.260 26.122,300.299 25.502,299.656 25.502 C 299.305 25.502,298.932 25.281,298.828 25.010 C 298.724 24.739,298.258 24.421,297.791 24.304 C 297.325 24.187,296.943 23.937,296.943 23.749 C 296.943 23.560,296.707 23.406,296.419 23.406 C 296.131 23.406,295.895 23.261,295.895 23.084 C 295.895 22.907,295.345 22.580,294.672 22.358 C 294.000 22.136,293.450 21.834,293.450 21.688 C 293.450 21.541,292.821 21.232,292.052 21.002 C 291.284 20.772,290.655 20.373,290.655 20.117 C 290.655 19.861,290.202 19.560,289.649 19.449 C 289.096 19.339,288.412 19.017,288.130 18.735 C 287.847 18.452,286.964 18.045,286.166 17.831 C 285.369 17.616,284.716 17.229,284.716 16.971 C 284.716 16.707,284.030 16.329,283.144 16.106 C 282.279 15.889,281.572 15.585,281.572 15.432 C 281.572 15.279,280.786 14.952,279.825 14.706 C 278.777 14.438,278.079 14.064,278.079 13.771 C 278.079 13.471,277.532 13.196,276.658 13.056 C 275.876 12.931,275.047 12.639,274.815 12.407 C 274.583 12.175,273.572 11.788,272.568 11.547 C 271.564 11.306,270.742 10.968,270.742 10.795 C 270.742 10.622,270.437 10.480,270.064 10.480 C 269.691 10.480,269.300 10.341,269.195 10.171 C 269.089 10.000,268.451 9.757,267.777 9.631 C 267.102 9.504,266.550 9.276,266.550 9.123 C 266.550 8.971,265.450 8.638,264.105 8.384 C 262.760 8.131,261.659 7.808,261.659 7.668 C 261.659 7.528,261.090 7.307,260.394 7.177 C 259.698 7.046,258.794 6.768,258.385 6.559 C 256.904 5.802,256.551 5.697,253.886 5.228 C 252.397 4.966,251.179 4.646,251.179 4.517 C 251.179 4.388,249.695 4.086,247.881 3.846 C 245.946 3.589,244.515 3.231,244.418 2.977 C 244.316 2.710,242.747 2.374,240.292 2.095 C 238.114 1.847,236.253 1.531,236.157 1.394 C 235.289 0.153,202.931 -0.402,190.393 0.609 M373.460 207.072 C 372.409 207.144,371.388 207.330,371.190 207.485 C 370.992 207.640,369.751 207.872,368.433 208.002 C 365.742 208.266,365.066 208.724,365.066 210.281 C 365.066 210.871,364.941 211.354,364.789 211.354 C 364.636 211.354,364.233 213.119,363.892 215.278 C 363.551 217.436,363.141 219.283,362.981 219.382 C 362.820 219.482,362.577 220.310,362.440 221.223 C 362.303 222.135,362.052 222.882,361.882 222.882 C 361.711 222.882,361.572 223.197,361.572 223.581 C 361.572 223.965,361.435 224.279,361.267 224.279 C 361.100 224.279,360.860 224.924,360.734 225.711 C 360.608 226.498,360.116 228.255,359.641 229.614 C 359.166 230.974,358.777 232.374,358.777 232.725 C 358.777 233.075,358.620 233.362,358.428 233.362 C 358.236 233.362,358.079 233.598,358.079 233.886 C 358.079 234.175,357.946 234.410,357.785 234.410 C 357.623 234.410,357.298 235.275,357.061 236.332 C 356.825 237.389,356.496 238.253,356.332 238.253 C 356.167 238.253,355.853 239.118,355.633 240.175 C 355.414 241.231,355.088 242.096,354.910 242.096 C 354.731 242.096,354.585 242.332,354.585 242.620 C 354.585 242.908,354.428 243.144,354.236 243.144 C 354.044 243.144,353.886 243.314,353.886 243.522 C 353.886 244.131,351.729 248.897,351.396 249.025 C 351.228 249.089,351.092 249.443,351.092 249.811 C 351.092 250.179,350.966 250.480,350.813 250.480 C 350.659 250.480,350.334 251.031,350.091 251.703 C 349.848 252.376,349.522 252.926,349.368 252.926 C 349.213 252.926,348.890 253.629,348.649 254.488 C 348.378 255.455,347.962 256.129,347.556 256.258 C 347.195 256.373,346.900 256.694,346.900 256.973 C 346.900 257.735,345.071 260.997,343.999 262.147 C 343.481 262.704,343.057 263.415,343.057 263.729 C 343.057 264.042,342.585 264.815,342.009 265.446 C 341.432 266.077,340.961 266.824,340.961 267.107 C 340.961 267.389,340.725 267.711,340.437 267.821 C 340.148 267.932,339.913 268.212,339.913 268.443 C 339.913 268.675,339.617 269.181,339.257 269.568 C 338.896 269.955,338.492 270.614,338.360 271.031 C 338.227 271.449,337.977 271.790,337.804 271.790 C 337.631 271.790,336.839 272.773,336.044 273.974 C 335.249 275.175,334.387 276.278,334.130 276.426 C 333.872 276.574,333.318 277.305,332.900 278.050 C 332.481 278.796,331.765 279.605,331.309 279.849 C 330.853 280.093,330.480 280.471,330.480 280.689 C 330.480 280.908,329.930 281.687,329.258 282.421 C 328.585 283.155,328.035 283.854,328.035 283.974 C 328.035 284.094,327.486 284.630,326.814 285.166 C 326.143 285.702,325.353 286.606,325.059 287.175 C 324.764 287.744,324.292 288.210,324.008 288.210 C 323.725 288.210,323.493 288.357,323.493 288.537 C 323.493 288.940,318.253 294.148,317.847 294.148 C 317.686 294.148,317.555 294.379,317.555 294.660 C 317.555 294.942,317.228 295.347,316.829 295.560 C 316.431 295.773,315.517 296.526,314.799 297.232 C 313.552 298.457,310.794 300.864,308.926 302.358 C 308.445 302.742,307.797 303.332,307.485 303.668 C 307.174 304.004,306.791 304.279,306.635 304.279 C 306.480 304.279,305.900 304.712,305.347 305.240 C 303.863 306.658,303.304 307.074,302.885 307.074 C 302.678 307.074,302.043 307.551,301.474 308.133 C 300.905 308.715,300.163 309.310,299.827 309.455 C 298.522 310.014,296.948 311.109,296.945 311.458 C 296.944 311.660,296.393 312.024,295.721 312.267 C 295.048 312.510,294.498 312.839,294.498 312.998 C 294.498 313.157,293.889 313.530,293.146 313.828 C 292.402 314.125,291.706 314.599,291.597 314.881 C 291.489 315.162,290.919 315.499,290.329 315.628 C 289.740 315.757,289.258 315.991,289.258 316.147 C 289.258 316.303,288.650 316.674,287.907 316.971 C 287.163 317.269,286.338 317.718,286.073 317.971 C 285.450 318.563,281.869 320.349,281.305 320.349 C 281.068 320.349,280.873 320.483,280.873 320.646 C 280.873 320.809,280.166 321.234,279.301 321.591 C 278.437 321.948,277.729 322.352,277.729 322.490 C 277.729 322.628,277.140 322.926,276.419 323.152 C 275.699 323.378,274.470 323.862,273.689 324.227 C 272.908 324.592,272.082 324.891,271.855 324.891 C 271.627 324.891,271.151 325.181,270.796 325.536 C 270.440 325.891,269.497 326.286,268.699 326.414 C 267.902 326.541,267.249 326.790,267.249 326.966 C 267.249 327.143,266.374 327.468,265.305 327.690 C 264.236 327.912,263.282 328.301,263.185 328.554 C 263.088 328.807,262.465 329.116,261.801 329.241 C 261.136 329.365,259.413 329.853,257.971 330.323 C 256.529 330.794,254.969 331.179,254.504 331.179 C 254.040 331.179,253.530 331.409,253.373 331.690 C 253.203 331.994,252.025 332.379,250.474 332.638 C 249.036 332.878,247.782 333.180,247.686 333.309 C 247.535 333.512,246.225 333.774,239.738 334.901 C 239.114 335.010,238.603 335.222,238.603 335.372 C 238.603 335.523,237.148 335.760,235.371 335.900 C 233.594 336.039,232.061 336.273,231.965 336.419 C 231.062 337.795,189.558 337.797,187.773 336.422 C 187.581 336.274,186.048 336.042,184.367 335.905 C 182.686 335.769,181.310 335.515,181.310 335.340 C 181.310 335.165,180.769 335.022,180.108 335.022 C 179.447 335.022,178.821 334.885,178.718 334.718 C 178.615 334.552,177.034 334.217,175.204 333.975 C 173.375 333.733,171.878 333.398,171.878 333.230 C 171.878 333.063,171.615 332.926,171.295 332.926 C 169.721 332.926,166.288 332.110,166.288 331.737 C 166.288 331.490,165.212 331.127,163.668 330.853 C 162.227 330.597,161.048 330.271,161.048 330.130 C 161.048 329.988,160.120 329.690,158.985 329.467 C 157.850 329.243,156.839 328.843,156.737 328.577 C 156.635 328.311,155.676 327.912,154.607 327.690 C 153.538 327.468,152.664 327.161,152.664 327.007 C 152.664 326.853,152.033 326.626,151.261 326.503 C 150.490 326.379,149.547 325.966,149.165 325.585 C 148.784 325.203,148.285 324.891,148.058 324.891 C 147.830 324.891,147.005 324.592,146.224 324.227 C 145.443 323.862,144.214 323.378,143.493 323.152 C 142.773 322.926,142.183 322.596,142.183 322.418 C 142.183 322.241,141.869 322.096,141.485 322.096 C 141.100 322.096,140.786 321.939,140.786 321.747 C 140.786 321.555,140.561 321.397,140.287 321.397 C 140.012 321.397,139.580 321.195,139.326 320.948 C 139.072 320.701,138.197 320.302,137.380 320.061 C 136.563 319.820,135.895 319.489,135.895 319.325 C 135.895 319.162,135.472 318.922,134.955 318.792 C 134.438 318.662,133.770 318.275,133.470 317.932 C 133.171 317.590,132.336 317.097,131.616 316.838 C 130.895 316.578,130.306 316.256,130.306 316.121 C 130.306 315.986,129.834 315.712,129.258 315.511 C 128.681 315.310,128.210 314.979,128.210 314.775 C 128.210 314.571,127.581 314.153,126.812 313.846 C 126.044 313.538,125.415 313.159,125.415 313.002 C 125.415 312.846,124.865 312.536,124.192 312.314 C 123.520 312.092,122.968 311.727,122.967 311.501 C 122.965 311.092,121.528 310.105,119.765 309.303 C 119.252 309.069,118.657 308.551,118.443 308.151 C 118.229 307.751,117.856 307.424,117.613 307.424 C 117.164 307.424,116.075 306.689,114.893 305.590 C 114.532 305.253,114.079 304.978,113.886 304.978 C 113.694 304.978,113.537 304.841,113.537 304.673 C 113.537 304.225,110.736 303.950,102.707 303.610 C 98.769 303.443,95.271 303.195,94.934 303.057 C 93.022 302.276,94.561 304.332,98.394 307.681 C 102.129 310.944,102.524 311.266,102.785 311.266 C 102.935 311.266,103.057 311.502,103.057 311.790 C 103.057 312.079,103.253 312.315,103.493 312.315 C 103.734 312.316,104.480 312.787,105.153 313.362 C 105.825 313.938,106.572 314.409,106.812 314.410 C 107.052 314.410,107.249 314.646,107.249 314.934 C 107.249 315.223,107.398 315.459,107.580 315.459 C 107.762 315.459,108.336 315.852,108.854 316.332 C 109.372 316.812,110.003 317.205,110.256 317.205 C 110.509 317.205,111.311 317.802,112.039 318.531 C 112.767 319.260,113.873 320.065,114.498 320.320 C 115.122 320.575,115.633 320.911,115.633 321.067 C 115.633 321.223,115.974 321.458,116.390 321.590 C 116.806 321.722,117.508 322.192,117.950 322.635 C 118.393 323.077,119.074 323.541,119.465 323.665 C 119.855 323.788,120.175 324.019,120.175 324.178 C 120.175 324.336,120.598 324.572,121.115 324.702 C 121.632 324.831,122.319 325.243,122.643 325.616 C 122.966 325.989,123.722 326.465,124.323 326.675 C 124.923 326.884,125.415 327.172,125.415 327.315 C 125.415 327.457,126.044 327.781,126.812 328.035 C 127.581 328.289,128.210 328.689,128.210 328.926 C 128.210 329.162,128.917 329.564,129.782 329.819 C 130.646 330.075,131.354 330.394,131.354 330.530 C 131.354 330.665,131.904 330.957,132.576 331.179 C 133.249 331.401,133.799 331.774,133.799 332.007 C 133.799 332.240,134.507 332.621,135.371 332.852 C 136.236 333.083,136.943 333.430,136.943 333.623 C 136.943 333.816,137.207 333.974,137.530 333.974 C 138.381 333.974,140.437 334.765,140.437 335.092 C 140.437 335.246,140.751 335.371,141.135 335.371 C 141.520 335.371,141.834 335.516,141.834 335.693 C 141.834 335.870,142.306 336.118,142.882 336.245 C 143.459 336.371,143.930 336.582,143.930 336.714 C 143.930 336.845,144.746 337.146,145.743 337.383 C 146.740 337.620,147.643 337.949,147.751 338.114 C 147.859 338.279,148.537 338.523,149.258 338.655 C 149.978 338.788,150.568 339.046,150.568 339.230 C 150.568 339.413,150.882 339.563,151.266 339.563 C 151.651 339.563,151.965 339.703,151.965 339.875 C 151.965 340.046,152.987 340.389,154.236 340.638 C 155.485 340.886,156.507 341.208,156.507 341.353 C 156.507 341.498,157.214 341.723,158.079 341.852 C 158.943 341.982,159.651 342.227,159.651 342.398 C 159.651 342.568,159.965 342.707,160.349 342.707 C 160.734 342.707,161.048 342.837,161.048 342.995 C 161.048 343.153,162.306 343.495,163.843 343.755 C 165.380 344.015,166.638 344.327,166.638 344.448 C 166.638 344.569,168.052 344.878,169.782 345.134 C 171.783 345.430,172.926 345.756,172.926 346.029 C 172.926 346.315,174.210 346.611,176.769 346.915 C 178.882 347.167,180.611 347.479,180.611 347.610 C 180.611 347.741,183.048 348.055,186.026 348.308 C 189.004 348.561,191.441 348.898,191.441 349.056 C 191.441 349.215,199.773 349.345,209.956 349.345 C 220.140 349.345,228.472 349.215,228.472 349.056 C 228.472 348.898,230.908 348.561,233.886 348.308 C 236.865 348.055,239.301 347.734,239.301 347.595 C 239.301 347.455,241.031 347.135,243.144 346.884 C 245.569 346.596,246.987 346.277,246.987 346.021 C 246.987 345.779,248.222 345.426,250.044 345.147 C 251.725 344.890,253.187 344.553,253.292 344.399 C 253.397 344.244,254.694 343.929,256.174 343.699 C 257.654 343.469,258.865 343.152,258.865 342.994 C 258.865 342.836,259.179 342.707,259.563 342.707 C 259.948 342.707,260.262 342.560,260.262 342.379 C 260.262 342.199,260.969 341.945,261.834 341.816 C 262.699 341.686,263.406 341.459,263.406 341.310 C 263.406 341.161,264.428 340.847,265.677 340.611 C 266.926 340.376,267.948 340.043,267.948 339.873 C 267.948 339.703,268.262 339.563,268.646 339.563 C 269.031 339.563,269.345 339.413,269.345 339.230 C 269.345 339.046,269.895 338.793,270.568 338.667 C 271.240 338.541,271.790 338.323,271.790 338.183 C 271.790 338.043,272.655 337.721,273.712 337.467 C 274.769 337.214,275.633 336.892,275.633 336.752 C 275.633 336.612,276.183 336.394,276.856 336.268 C 277.528 336.141,278.079 335.888,278.079 335.705 C 278.079 335.521,278.314 335.371,278.603 335.371 C 278.891 335.371,279.127 335.248,279.127 335.098 C 279.127 334.948,279.834 334.616,280.699 334.361 C 281.563 334.106,282.271 333.789,282.271 333.658 C 282.271 333.527,282.978 333.231,283.843 333.000 C 284.707 332.768,285.415 332.377,285.415 332.130 C 285.415 331.883,286.122 331.472,286.987 331.217 C 287.852 330.961,288.559 330.615,288.559 330.447 C 288.559 330.279,289.266 329.963,290.131 329.745 C 290.996 329.528,291.703 329.144,291.703 328.894 C 291.703 328.643,292.253 328.257,292.926 328.035 C 293.598 327.813,294.148 327.518,294.148 327.379 C 294.148 327.241,294.726 326.918,295.431 326.663 C 296.137 326.408,297.088 325.826,297.543 325.370 C 297.999 324.915,298.601 324.541,298.881 324.541 C 299.160 324.541,299.389 324.401,299.389 324.230 C 299.389 324.059,299.763 323.825,300.221 323.710 C 300.679 323.595,301.560 323.027,302.180 322.449 C 302.799 321.871,303.525 321.397,303.792 321.397 C 304.060 321.397,304.279 321.265,304.279 321.104 C 304.279 320.943,304.678 320.629,305.166 320.407 C 306.079 319.991,306.329 319.804,308.170 318.162 C 308.765 317.632,309.627 317.104,310.084 316.989 C 310.542 316.874,310.917 316.637,310.917 316.461 C 310.917 316.286,311.310 315.963,311.790 315.744 C 312.271 315.525,312.664 315.128,312.664 314.860 C 312.664 314.593,313.135 314.210,313.712 314.009 C 314.288 313.808,314.760 313.498,314.760 313.321 C 314.760 313.143,315.153 312.819,315.633 312.600 C 316.114 312.381,316.507 311.988,316.507 311.726 C 316.507 311.464,316.888 311.104,317.355 310.927 C 317.821 310.749,318.743 310.085,319.402 309.450 C 321.310 307.615,323.875 305.328,324.026 305.328 C 324.102 305.328,324.899 304.541,325.798 303.581 C 326.697 302.620,327.646 301.834,327.908 301.834 C 328.170 301.834,328.384 301.654,328.384 301.435 C 328.384 300.890,330.549 298.698,331.092 298.694 C 331.332 298.692,331.528 298.477,331.528 298.217 C 331.528 297.957,332.354 296.972,333.362 296.028 C 334.371 295.083,335.747 293.492,336.419 292.492 C 337.092 291.491,337.799 290.665,337.991 290.654 C 338.183 290.644,338.734 290.077,339.214 289.393 C 339.694 288.710,340.834 287.358,341.747 286.388 C 342.659 285.419,343.406 284.445,343.406 284.224 C 343.406 284.003,343.956 283.303,344.629 282.669 C 345.301 282.034,345.852 281.353,345.852 281.154 C 345.852 280.955,346.638 279.792,347.598 278.570 C 348.559 277.347,349.345 276.194,349.345 276.007 C 349.345 275.821,349.551 275.542,349.802 275.389 C 350.054 275.235,350.468 274.592,350.723 273.960 C 350.979 273.329,351.480 272.655,351.838 272.463 C 352.196 272.272,352.489 271.896,352.489 271.628 C 352.489 271.361,352.692 270.934,352.939 270.680 C 353.186 270.426,353.665 269.629,354.003 268.908 C 354.341 268.188,354.846 267.598,355.126 267.598 C 355.405 267.598,355.633 267.360,355.633 267.069 C 355.633 266.552,356.303 265.149,356.715 264.803 C 356.829 264.707,357.027 264.202,357.155 263.680 C 357.283 263.159,357.753 262.366,358.201 261.918 C 358.649 261.470,359.119 260.690,359.246 260.184 C 359.373 259.677,359.699 259.041,359.970 258.770 C 360.241 258.499,360.659 257.623,360.898 256.824 C 361.137 256.025,361.519 255.371,361.746 255.371 C 361.973 255.371,362.375 254.703,362.639 253.886 C 362.903 253.070,363.385 251.930,363.709 251.354 C 364.034 250.777,364.405 249.795,364.535 249.170 C 364.665 248.546,364.984 248.035,365.244 248.035 C 365.727 248.035,365.888 247.672,366.290 245.677 C 366.416 245.052,366.651 244.541,366.812 244.541 C 366.974 244.541,367.207 244.031,367.330 243.406 C 367.658 241.747,368.284 240.211,368.750 239.923 C 368.974 239.785,369.359 238.724,369.605 237.565 C 369.851 236.407,370.170 235.459,370.315 235.459 C 370.459 235.459,370.683 234.869,370.812 234.148 C 371.156 232.229,372.143 229.170,372.418 229.170 C 372.549 229.170,372.861 228.188,373.112 226.987 C 373.362 225.786,373.672 224.725,373.800 224.629 C 373.927 224.533,374.301 223.197,374.630 221.659 C 375.491 217.639,375.623 217.138,375.880 216.943 C 376.159 216.732,376.943 212.514,376.943 211.226 C 376.943 210.720,377.100 210.306,377.293 210.306 C 377.485 210.306,377.642 209.520,377.642 208.559 L 377.642 206.812 376.507 206.877 C 375.882 206.912,374.511 207.000,373.460 207.072 M43.319 213.566 C 43.319 214.998,44.104 218.497,44.548 219.039 C 44.783 219.328,45.176 220.664,45.421 222.009 C 45.666 223.354,45.968 224.533,46.092 224.629 C 46.344 224.825,47.522 229.747,47.515 230.577 C 47.513 230.871,47.805 231.363,48.164 231.670 C 48.526 231.980,48.924 232.947,49.058 233.844 C 49.191 234.732,49.413 235.459,49.551 235.459 C 49.689 235.459,50.090 236.576,50.441 237.942 C 50.793 239.309,51.354 240.699,51.688 241.033 C 52.022 241.367,52.400 242.293,52.527 243.091 C 52.655 243.889,52.908 244.541,53.089 244.541 C 53.270 244.541,53.525 245.131,53.655 245.852 C 53.916 247.297,54.396 248.374,55.020 248.908 C 55.244 249.100,55.636 249.926,55.892 250.742 C 56.147 251.559,56.454 252.227,56.574 252.227 C 56.693 252.227,57.000 252.934,57.255 253.799 C 57.510 254.664,57.917 255.371,58.159 255.371 C 58.401 255.371,58.799 256.086,59.044 256.960 C 59.289 257.833,59.757 258.895,60.084 259.318 C 60.412 259.741,60.785 260.520,60.914 261.048 C 61.043 261.576,61.356 262.009,61.610 262.009 C 62.081 262.009,62.882 263.419,62.882 264.249 C 62.882 264.502,63.197 265.109,63.581 265.598 C 63.965 266.086,64.279 266.751,64.279 267.075 C 64.279 267.399,64.560 267.737,64.902 267.826 C 65.245 267.916,65.746 268.491,66.016 269.104 C 66.286 269.717,66.713 270.426,66.965 270.680 C 67.217 270.934,67.424 271.338,67.424 271.578 C 67.424 271.818,67.895 272.542,68.472 273.188 C 69.048 273.833,69.520 274.561,69.520 274.805 C 69.520 275.049,69.718 275.375,69.960 275.528 C 70.202 275.682,70.713 276.415,71.095 277.156 C 71.478 277.898,71.974 278.578,72.198 278.667 C 72.422 278.756,73.033 279.447,73.555 280.201 C 74.677 281.820,74.706 281.825,76.365 280.699 C 77.073 280.218,77.893 279.825,78.187 279.825 C 78.851 279.825,83.151 277.758,83.780 277.137 C 84.034 276.886,84.388 276.681,84.566 276.681 C 84.745 276.681,84.891 276.288,84.891 275.808 C 84.891 275.328,84.744 274.934,84.565 274.934 C 84.386 274.934,84.151 274.659,84.044 274.323 C 83.936 273.987,83.252 273.060,82.522 272.264 C 81.793 271.468,80.888 270.180,80.511 269.401 C 80.134 268.623,79.550 267.913,79.214 267.825 C 78.878 267.736,78.603 267.389,78.603 267.053 C 78.603 266.716,78.210 265.926,77.729 265.296 C 77.249 264.667,76.856 263.890,76.856 263.571 C 76.856 263.252,76.576 262.918,76.233 262.829 C 75.891 262.739,75.392 262.164,75.126 261.551 C 74.859 260.938,74.550 260.358,74.438 260.262 C 74.094 259.965,73.013 257.470,73.013 256.972 C 73.013 256.713,72.715 256.423,72.351 256.328 C 71.960 256.225,71.592 255.710,71.450 255.064 C 71.319 254.464,71.101 253.974,70.966 253.974 C 70.832 253.974,70.416 253.188,70.044 252.227 C 69.671 251.266,69.199 250.480,68.995 250.480 C 68.791 250.480,68.415 249.773,68.160 248.908 C 67.905 248.044,67.595 247.336,67.472 247.336 C 67.349 247.336,66.947 246.393,66.579 245.240 C 66.211 244.087,65.725 243.144,65.499 243.144 C 65.092 243.144,64.279 240.965,64.279 239.872 C 64.279 239.558,64.140 239.301,63.969 239.301 C 63.798 239.301,63.384 238.288,63.049 237.050 C 62.714 235.812,62.238 234.721,61.992 234.627 C 61.745 234.532,61.362 233.580,61.140 232.511 C 60.918 231.442,60.619 230.568,60.476 230.568 C 60.333 230.568,60.012 229.546,59.764 228.297 C 59.433 226.632,59.160 226.019,58.739 225.999 C 58.377 225.981,58.327 225.906,58.603 225.795 C 59.336 225.499,59.092 224.811,58.032 224.185 C 57.478 223.857,56.653 223.197,56.198 222.718 C 55.743 222.238,55.256 221.843,55.116 221.840 C 54.975 221.837,54.329 221.323,53.680 220.699 C 50.900 218.025,49.095 216.515,48.329 216.224 C 47.879 216.053,47.511 215.673,47.511 215.380 C 47.511 215.087,47.383 214.847,47.227 214.847 C 47.072 214.847,46.629 214.554,46.245 214.196 C 44.582 212.647,43.319 212.375,43.319 213.566 " stroke="none" fill="#040404" fill-rule="evenodd"></path><path id="path2" d="" stroke="none" fill="#243c100" fill-rule="evenodd"></path><path id="path3" d="" stroke="none" fill="#243c100" fill-rule="evenodd"></path><path id="path4" d="" stroke="none" fill="#243c100" fill-rule="evenodd"></path></g></svg>